0
SECTION
2
HEADER
9
$INSUNITS
70
4
9
$ACADVER
1
AC1014
9
$HANDSEED
5
FFFF
0
ENDSEC
0
SECTION
2
TABLES
0
TABLE
2
VPORT
5
8
100
AcDbSymbolTable
0
ENDTAB
0
TABLE
2
LTYPE
5
5
100
AcDbSymbolTable
0
LTYPE
5
14
100
AcDbSymbolTableRecord
100
AcDbLinetypeTableRecord
2
BYBLOCK
70
0
0
LTYPE
5
15
100
AcDbSymbolTableRecord
100
AcDbLinetypeTableRecord
2
BYLAYER
70
0
0
ENDTAB
0
TABLE
2
LAYER
5
2
100
AcDbSymbolTable
70
2
0
LAYER
5
50
100
AcDbSymbolTableRecord
100
AcDbLayerTableRecord
2
0
70
0
6
CONTINUOUS
0
ENDTAB
0
TABLE
2
STYLE
5
3
100
AcDbSymbolTable
70
1
0
STYLE
5
11
100
AcDbSymbolTableRecord
100
AcDbTextStyleTableRecord
2
STANDARD
70
0
0
ENDTAB
0
TABLE
2
VIEW
5
6
100
AcDbSymbolTable
70
0
0
ENDTAB
0
TABLE
2
UCS
5
7
100
AcDbSymbolTable
70
0
0
ENDTAB
0
TABLE
2
APPID
5
9
100
AcDbSymbolTable
70
2
0
APPID
5
12
100
AcDbSymbolTableRecord
100
AcDbRegAppTableRecord
2
ACAD
70
0
0
ENDTAB
0
TABLE
2
DIMSTYLE
5
A
100
AcDbSymbolTable
70
1
0
ENDTAB
0
TABLE
2
BLOCK_RECORD
5
1
100
AcDbSymbolTable
70
1
0
BLOCK_RECORD
5
1F
100
AcDbSymbolTableRecord
100
AcDbBlockTableRecord
2
*MODEL_SPACE
0
BLOCK_RECORD
5
1B
100
AcDbSymbolTableRecord
100
AcDbBlockTableRecord
2
*PAPER_SPACE
0
ENDTAB
0
ENDSEC
0
SECTION
2
BLOCKS
0
BLOCK
5
20
100
AcDbEntity
100
AcDbBlockBegin
2
*MODEL_SPACE
0
ENDBLK
5
21
100
AcDbEntity
100
AcDbBlockEnd
0
BLOCK
5
1C
100
AcDbEntity
100
AcDbBlockBegin
2
*PAPER_SPACE
0
ENDBLK
5
1D
100
AcDbEntity
100
AcDbBlockEnd
0
ENDSEC
0
SECTION
2
ENTITIES
0
LINE
5
100
100
AcDbEntity
8
0
100
AcDbLine
10
79.871449034438044
20
3.0730754682466506
30
0
11
79.86210019091294
21
23.427031001227757
31
0
0
LINE
5
101
100
AcDbEntity
8
0
100
AcDbLine
10
79.86210019091294
20
23.427031001227757
30
0
11
-20.137889260650994
21
23.38109967095739
31
0
0
LINE
5
102
100
AcDbEntity
8
0
100
AcDbLine
10
-20.137889260650994
20
23.38109967095739
30
0
11
-20.125659590302188
21
-3.2448852216617841
31
0
0
LINE
5
103
100
AcDbEntity
8
0
100
AcDbLine
10
-19.546963908726962
20
7.4712239874165025
30
0
11
-18.171902762361348
21
8.9235348507497232
31
0
0
LINE
5
104
100
AcDbEntity
8
0
100
AcDbLine
10
-18.171902762361348
20
8.9235348507497232
30
0
11
-19.624213625694573
21
10.298595997115335
31
0
0
ARC
5
105
100
AcDbEntity
8
0
100
AcDbCircle
10
0.85268911683638038
20
52.244349830546277
30
0
40
49.201408936412719
100
AcDbArc
50
245.5049125615208
51
270.02185289764424
0
CIRCLE
5
106
100
AcDbEntity
8
0
100
AcDbCircle
10
1.8694151625769162
20
10.345741713893242
30
0
40
5
0
LINE
5
107
100
AcDbEntity
8
0
100
AcDbLine
10
79.86210019091294
20
23.427031001227757
30
0
11
9.8621075748181752
21
23.394879070038495
31
0
0
LINE
5
108
100
AcDbEntity
8
0
100
AcDbLine
10
7.9990503808568008
20
10.00195598957395
30
0
11
11.990047812660256
21
10.004523541062969
31
0
0
LINE
5
109
100
AcDbEntity
8
0
100
AcDbLine
10
9.8695112400593921
20
12.019219089388862
30
0
11
9.8695112400593921
21
8.0000001192092896
31
0
0
LINE
5
110
100
AcDbEntity
8
0
100
AcDbLine
10
14.978912888468884
20
3.0580099705196897
30
0
11
14.978150078457391
21
5.0580098250499059
31
0
0
LINE
5
111
100
AcDbEntity
8
0
100
AcDbLine
10
14.978150078457391
20
5.0580098250499059
30
0
11
16.978149932987606
21
5.0587726350613984
31
0
0
LINE
5
112
100
AcDbEntity
8
0
100
AcDbLine
10
16.978149932987606
20
5.0587726350613984
30
0
11
16.978916436846124
21
3.0490879397451653
31
0
0
LINE
5
113
100
AcDbEntity
8
0
100
AcDbLine
10
16.962719550050497
20
16.96987487471203
30
0
11
16.75507674693192
21
14.980682961820502
31
0
0
LINE
5
114
100
AcDbEntity
8
0
100
AcDbLine
10
16.75507674693192
20
14.980682961820502
30
0
11
14.76588483404039
21
15.188325764939082
31
0
0
LINE
5
115
100
AcDbEntity
8
0
100
AcDbLine
10
14.76588483404039
20
15.188325764939082
30
0
11
14.97352763715897
21
17.177517677830608
31
0
0
ARC
5
116
100
AcDbEntity
8
0
100
AcDbCircle
10
7.0262136111078277
20
-33.295875347676258
30
0
40
51.095236605147001
100
AcDbArc
50
81.051928541473671
51
121.43852289621277
0
LINE
5
117
100
AcDbEntity
8
0
100
AcDbLine
10
0.87145478049449387
20
3.0429444727927288
30
0
11
14.978912888468884
21
3.0580099705196897
31
0
0
LINE
5
118
100
AcDbEntity
8
0
100
AcDbLine
10
39.963750437807619
20
3.0610817039959084
30
0
11
39.962987627796124
21
5.0610815585261246
31
0
0
LINE
5
119
100
AcDbEntity
8
0
100
AcDbLine
10
39.962987627796124
20
5.0610815585261246
30
0
11
37.962987773265915
21
5.0603187485146304
31
0
0
LINE
5
120
100
AcDbEntity
8
0
100
AcDbLine
10
37.962987773265915
20
5.0603187485146304
30
0
11
37.963751814160084
21
3.057091661584975
31
0
0
LINE
5
121
100
AcDbEntity
8
0
100
AcDbLine
10
16.978916436846124
20
3.0490879397451653
30
0
11
37.963751814160084
21
3.057091661584975
31
0
0
LINE
5
122
100
AcDbEntity
8
0
100
AcDbLine
10
39.963750437807619
20
3.0610817039959084
30
0
11
44.87145158015926
21
3.0597262930455473
31
0
0
LINE
5
123
100
AcDbEntity
8
0
100
AcDbLine
10
39.959747424860765
20
13.556519874433512
30
0
11
39.588004458159801
21
11.591371745994241
31
0
0
LINE
5
124
100
AcDbEntity
8
0
100
AcDbLine
10
37.994599296421498
20
13.928262841134476
30
0
11
37.622856329720534
21
11.963114712695205
31
0
0
LINE
5
125
100
AcDbEntity
8
0
100
AcDbLine
10
37.622856329720534
20
11.963114712695205
30
0
11
39.588004458159801
21
11.591371745994241
31
0
0
ARC
5
126
100
AcDbEntity
8
0
100
AcDbCircle
10
-16.044123470635441
20
-285.49856218317461
30
0
40
304.26404175060748
100
AcDbArc
50
79.769728875661116
51
83.77224536192773
0
ARC
5
127
100
AcDbEntity
8
0
100
AcDbCircle
10
-14.776998719351582
20
-276.04867356656996
30
0
40
294.73255579668711
100
AcDbArc
50
71.268522139724055
51
79.297081846415679
0
LINE
5
128
100
AcDbEntity
8
0
100
AcDbLine
10
9.8695112400593921
20
-42.980780910611138
30
0
11
9.8695112400593921
21
-46.99999988079071
31
0
0
LINE
5
129
100
AcDbEntity
8
0
100
AcDbLine
10
-19.546963908726962
20
-47.528776012583492
30
0
11
-18.171902762361348
21
-46.076465149250282
31
0
0
ARC
5
130
100
AcDbEntity
8
0
100
AcDbCircle
10
7.0262136111078277
20
-88.295875347676258
30
0
40
51.095236605147008
100
AcDbArc
50
81.051928541473671
51
121.43852289621277
0
LINE
5
131
100
AcDbEntity
8
0
100
AcDbLine
10
14.978912888468884
20
-51.941990029480316
30
0
11
14.978150078457391
21
-49.941990174950092
31
0
0
LINE
5
132
100
AcDbEntity
8
0
100
AcDbLine
10
16.75507674693192
20
-40.019317038179494
30
0
11
14.76588483404039
21
-39.81167423506092
31
0
0
ARC
5
133
100
AcDbEntity
8
0
100
AcDbCircle
10
0.85268911683638038
20
-2.755650169453725
30
0
40
49.20140893641269
100
AcDbArc
50
245.5049125615208
51
270.02185289764424
0
LINE
5
134
100
AcDbEntity
8
0
100
AcDbLine
10
39.959747424860765
20
-41.443480125566488
30
0
11
39.588004458159801
21
-43.408628254005762
31
0
0
ARC
5
135
100
AcDbEntity
8
0
100
AcDbCircle
10
-16.044123470635441
20
-340.49856218317461
30
0
40
304.26404175063647
100
AcDbArc
50
79.769728875661116
51
83.77224536192773
0
LINE
5
136
100
AcDbEntity
8
0
100
AcDbLine
10
39.963750437807619
20
-51.938918296004097
30
0
11
39.962987627796124
21
-49.938918441473874
31
0
0
LINE
5
137
100
AcDbEntity
8
0
100
AcDbLine
10
37.994599296421498
20
-41.071737158865524
30
0
11
37.622856329720534
21
-43.036885287304791
31
0
0
LINE
5
138
100
AcDbEntity
8
0
100
AcDbLine
10
14.978150078457391
20
-49.941990174950092
30
0
11
16.978149932987606
21
-49.941227364938605
31
0
0
LINE
5
139
100
AcDbEntity
8
0
100
AcDbLine
10
37.962987773265915
20
-49.939681251485368
30
0
11
37.963751814160084
21
-51.942908338415023
31
0
0
LINE
5
140
100
AcDbEntity
8
0
100
AcDbLine
10
7.9990503808568008
20
-44.998044010426042
30
0
11
11.990047812660256
21
-44.995476458937027
31
0
0
LINE
5
141
100
AcDbEntity
8
0
100
AcDbLine
10
-18.171902762361348
20
-46.076465149250282
30
0
11
-19.624213625694573
21
-44.701404002884658
31
0
0
LINE
5
142
100
AcDbEntity
8
0
100
AcDbLine
10
79.86210019091294
20
-31.572968998772243
30
0
11
9.8621075748181752
21
-31.605120929961505
31
0
0
LINE
5
143
100
AcDbEntity
8
0
100
AcDbLine
10
37.622856329720534
20
-43.036885287304791
30
0
11
39.588004458159801
21
-43.408628254005762
31
0
0
LINE
5
144
100
AcDbEntity
8
0
100
AcDbLine
10
16.978916436846124
20
-51.950912060254836
30
0
11
37.963751814160084
21
-51.942908338415023
31
0
0
LINE
5
145
100
AcDbEntity
8
0
100
AcDbLine
10
14.76588483404039
20
-39.81167423506092
30
0
11
14.97352763715897
21
-37.822482322169392
31
0
0
LINE
5
146
100
AcDbEntity
8
0
100
AcDbLine
10
39.962987627796124
20
-49.938918441473874
30
0
11
37.962987773265915
21
-49.939681251485368
31
0
0
LINE
5
147
100
AcDbEntity
8
0
100
AcDbLine
10
16.978149932987606
20
-49.941227364938605
30
0
11
16.978916436846124
21
-51.950912060254836
31
0
0
LINE
5
148
100
AcDbEntity
8
0
100
AcDbLine
10
0.87145478049449387
20
-51.957055527207274
30
0
11
14.978912888468884
21
-51.941990029480316
31
0
0
CIRCLE
5
149
100
AcDbEntity
8
0
100
AcDbCircle
10
1.8694151625769162
20
-44.65425828610676
30
0
40
5
0
LINE
5
150
100
AcDbEntity
8
0
100
AcDbLine
10
16.962719550050497
20
-38.030125125287967
30
0
11
16.75507674693192
21
-40.019317038179494
31
0
0
LINE
5
151
100
AcDbEntity
8
0
100
AcDbLine
10
79.86210019091294
20
-31.572968998772243
30
0
11
-20.137889260650994
21
-31.61890032904261
31
0
0
LINE
5
152
100
AcDbEntity
8
0
100
AcDbLine
10
79.871449034438044
20
-51.926924531753343
30
0
11
79.86210019091294
21
-31.572968998772243
31
0
0
LINE
5
153
100
AcDbEntity
8
0
100
AcDbLine
10
-20.137889260650994
20
-31.61890032904261
30
0
11
-20.125659590302188
21
-58.244885221661782
31
0
0
LINE
5
154
100
AcDbEntity
8
0
100
AcDbLine
10
39.963750437807619
20
-51.938918296004097
30
0
11
44.87145158015926
21
-51.94027370695445
31
0
0
ARC
5
155
100
AcDbEntity
8
0
100
AcDbCircle
10
74.599495543638739
20
-47.177685092147748
30
0
40
30.10712288161124
100
AcDbArc
50
170.89825721665605
51
189.10174278334409
0
ARC
5
156
100
AcDbEntity
8
0
100
AcDbCircle
10
75.776259039334718
20
-47.224985990690342
30
0
40
30.777487101397295
100
AcDbArc
50
171.19982381724935
51
188.80017618275045
0
LINE
5
157
100
AcDbEntity
8
0
100
AcDbLine
10
45.361087254824625
20
-51.9335991193539
30
0
11
79.871449034438044
21
-51.926924531753343
31
0
0
ARC
5
158
100
AcDbEntity
8
0
100
AcDbCircle
10
30.996746579837406
20
-98.990721366156265
30
0
40
58.241053892856925
100
AcDbArc
50
76.219741096065007
51
81.147290608945781
0
ARC
5
159
100
AcDbEntity
8
0
100
AcDbCircle
10
-35.482826117406603
20
-406.97050849286256
30
0
40
373.31294554000203
100
AcDbArc
50
72.000931023686192
51
77.493050858254406
0
LINE
5
160
100
AcDbEntity
8
0
100
AcDbLine
10
39.963750437807619
20
3.0610817039959084
30
0
11
60.120852925156228
21
3.0555147070157678
31
0
0
LINE
5
161
100
AcDbEntity
8
0
100
AcDbLine
10
60.120852925156228
20
3.0555147070157678
30
0
11
60.121405285970127
21
5.0555146307401504
31
0
0
LINE
5
162
100
AcDbEntity
8
0
100
AcDbLine
10
60.121405285970127
20
5.0555146307401504
30
0
11
62.121405209694515
21
5.0549622699262535
31
0
0
LINE
5
163
100
AcDbEntity
8
0
100
AcDbLine
10
62.121405209694515
20
5.0549622699262535
30
0
11
62.122163693281458
21
3.0663058014767315
31
0
0
LINE
5
164
100
AcDbEntity
8
0
100
AcDbLine
10
79.871449034438044
20
3.0730754682466506
30
0
11
62.122163693281458
21
3.0663058014767315
31
0
0
CIRCLE
5
165
100
AcDbEntity
8
0
100
AcDbCircle
10
9.8695112400593921
20
10.009609604299076
30
0
40
0.99999999999999967
0
CIRCLE
5
166
100
AcDbEntity
8
0
100
AcDbCircle
10
9.8695112400593921
20
-44.990390395700928
30
0
40
1.0000000000000004
0
LINE
5
167
100
AcDbEntity
8
0
100
AcDbLine
10
90.137899809087045
20
23.427031001227757
30
0
11
190.13788926065101
21
23.38109967095739
31
0
0
CIRCLE
5
168
100
AcDbEntity
8
0
100
AcDbCircle
10
160.13048875994059
20
10.009609604299076
30
0
40
0.99999999999999967
0
LINE
5
169
100
AcDbEntity
8
0
100
AcDbLine
10
90.128550965561956
20
3.0730754682466488
30
0
11
90.137899809087045
21
23.427031001227757
31
0
0
LINE
5
170
100
AcDbEntity
8
0
100
AcDbLine
10
90.128550965561956
20
3.0730754682466488
30
0
11
107.87783630671854
21
3.0663058014767319
31
0
0
LINE
5
171
100
AcDbEntity
8
0
100
AcDbLine
10
160.13048875994059
20
12.019219089388862
30
0
11
160.13048875994059
21
8.0000001192092896
31
0
0
LINE
5
172
100
AcDbEntity
8
0
100
AcDbLine
10
162.0009496191432
20
10.00195598957395
30
0
11
158.00995218733974
21
10.004523541062969
31
0
0
LINE
5
173
100
AcDbEntity
8
0
100
AcDbLine
10
189.54696390872698
20
7.4712239874165025
30
0
11
188.17190276236133
21
8.9235348507497232
31
0
0
LINE
5
174
100
AcDbEntity
8
0
100
AcDbLine
10
155.02184992154261
20
5.058009825049905
30
0
11
153.02185006701239
21
5.0587726350613993
31
0
0
LINE
5
175
100
AcDbEntity
8
0
100
AcDbLine
10
190.13788926065101
20
23.38109967095739
30
0
11
190.12565959030218
21
-3.2448852216617841
31
0
0
LINE
5
176
100
AcDbEntity
8
0
100
AcDbLine
10
155.0210871115311
20
3.0580099705196906
30
0
11
155.02184992154261
21
5.058009825049905
31
0
0
LINE
5
177
100
AcDbEntity
8
0
100
AcDbLine
10
90.137899809087045
20
23.427031001227757
30
0
11
160.13789242518183
21
23.394879070038495
31
0
0
LINE
5
178
100
AcDbEntity
8
0
100
AcDbLine
10
130.03624956219238
20
3.0610817039959093
30
0
11
125.12854841984074
21
3.0597262930455482
31
0
0
ARC
5
179
100
AcDbEntity
8
0
100
AcDbCircle
10
184.77699871935158
20
-276.04867356656996
30
0
40
294.73255579670359
100
AcDbArc
50
100.70291815358433
51
108.73147786027593
0
LINE
5
180
100
AcDbEntity
8
0
100
AcDbLine
10
153.03728044994952
20
16.96987487471203
30
0
11
153.24492325306809
21
14.980682961820502
31
0
0
LINE
5
181
100
AcDbEntity
8
0
100
AcDbLine
10
153.02185006701239
20
5.0587726350613993
30
0
11
153.02108356315387
21
3.0490879397451653
31
0
0
LINE
5
182
100
AcDbEntity
8
0
100
AcDbLine
10
153.24492325306809
20
14.980682961820502
30
0
11
155.23411516595959
21
15.188325764939082
31
0
0
ARC
5
183
100
AcDbEntity
8
0
100
AcDbCircle
10
186.04412347063544
20
-285.49856218317461
30
0
40
304.2640417506363
100
AcDbArc
50
96.22775463807227
51
100.2302711243389
0
LINE
5
184
100
AcDbEntity
8
0
100
AcDbLine
10
155.23411516595959
20
15.188325764939082
30
0
11
155.02647236284102
21
17.177517677830608
31
0
0
LINE
5
185
100
AcDbEntity
8
0
100
AcDbLine
10
130.04025257513922
20
13.556519874433512
30
0
11
130.41199554184021
21
11.591371745994241
31
0
0
CIRCLE
5
186
100
AcDbEntity
8
0
100
AcDbCircle
10
168.1305848374231
20
10.345741713893242
30
0
40
5
0
ARC
5
187
100
AcDbEntity
8
0
100
AcDbCircle
10
169.14731088316361
20
52.244349830546277
30
0
40
49.201408936412705
100
AcDbArc
50
269.97814710235576
51
294.49508743847923
0
LINE
5
188
100
AcDbEntity
8
0
100
AcDbLine
10
153.02108356315387
20
3.0490879397451653
30
0
11
132.03624818583992
21
3.0570916615849741
31
0
0
LINE
5
189
100
AcDbEntity
8
0
100
AcDbLine
10
132.00540070357849
20
13.928262841134476
30
0
11
132.37714367027945
21
11.963114712695205
31
0
0
LINE
5
190
100
AcDbEntity
8
0
100
AcDbLine
10
107.87859479030547
20
5.0549622699262535
30
0
11
107.87783630671854
21
3.0663058014767319
31
0
0
LINE
5
191
100
AcDbEntity
8
0
100
AcDbLine
10
169.1285452195055
20
3.042944472792728
30
0
11
155.0210871115311
21
3.0580099705196906
31
0
0
ARC
5
192
100
AcDbEntity
8
0
100
AcDbCircle
10
162.97378638889217
20
-33.295875347676258
30
0
40
51.095236605147008
100
AcDbArc
50
58.561477103787247
51
98.948071458526329
0
LINE
5
193
100
AcDbEntity
8
0
100
AcDbLine
10
109.87914707484377
20
3.0555147070157673
30
0
11
109.87859471402987
21
5.0555146307401504
31
0
0
LINE
5
194
100
AcDbEntity
8
0
100
AcDbLine
10
132.37714367027945
20
11.963114712695205
30
0
11
130.41199554184021
21
11.591371745994241
31
0
0
LINE
5
195
100
AcDbEntity
8
0
100
AcDbLine
10
130.03624956219238
20
3.0610817039959093
30
0
11
109.87914707484377
21
3.0555147070157673
31
0
0
LINE
5
196
100
AcDbEntity
8
0
100
AcDbLine
10
130.03701237220386
20
5.0610815585261237
30
0
11
132.03701222673408
21
5.0603187485146295
31
0
0
LINE
5
197
100
AcDbEntity
8
0
100
AcDbLine
10
109.87859471402987
20
5.0555146307401504
30
0
11
107.87859479030547
21
5.0549622699262535
31
0
0
LINE
5
198
100
AcDbEntity
8
0
100
AcDbLine
10
188.17190276236133
20
8.9235348507497232
30
0
11
189.62421362569458
21
10.298595997115335
31
0
0
LINE
5
199
100
AcDbEntity
8
0
100
AcDbLine
10
132.03701222673408
20
5.0603187485146295
30
0
11
132.03624818583992
21
3.0570916615849741
31
0
0
LINE
5
200
100
AcDbEntity
8
0
100
AcDbLine
10
130.03624956219238
20
3.0610817039959093
30
0
11
130.03701237220386
21
5.0610815585261237
31
0
0
LINE
5
201
100
AcDbEntity
8
0
100
AcDbLine
10
130.03624956219238
20
-51.938918296004097
30
0
11
130.03701237220386
21
-49.938918441473874
31
0
0
LINE
5
202
100
AcDbEntity
8
0
100
AcDbLine
10
132.00540070357849
20
-41.071737158865524
30
0
11
132.37714367027945
21
-43.036885287304791
31
0
0
LINE
5
203
100
AcDbEntity
8
0
100
AcDbLine
10
132.03701222673408
20
-49.939681251485368
30
0
11
132.03624818583992
21
-51.942908338415023
31
0
0
LINE
5
204
100
AcDbEntity
8
0
100
AcDbLine
10
162.0009496191432
20
-44.998044010426042
30
0
11
158.00995218733974
21
-44.995476458937027
31
0
0
LINE
5
205
100
AcDbEntity
8
0
100
AcDbLine
10
153.24492325306809
20
-40.019317038179494
30
0
11
155.23411516595959
21
-39.81167423506092
31
0
0
LINE
5
206
100
AcDbEntity
8
0
100
AcDbLine
10
189.54696390872698
20
-47.528776012583492
30
0
11
188.17190276236133
21
-46.076465149250282
31
0
0
LINE
5
207
100
AcDbEntity
8
0
100
AcDbLine
10
90.137899809087045
20
-31.57296899877224
30
0
11
160.13789242518183
21
-31.605120929961501
31
0
0
ARC
5
208
100
AcDbEntity
8
0
100
AcDbCircle
10
95.400504456361261
20
-47.177685092147748
30
0
40
30.10712288161151
100
AcDbArc
50
-9.1017427833441165
51
9.1017427833439477
0
LINE
5
209
100
AcDbEntity
8
0
100
AcDbLine
10
130.04025257513922
20
-41.443480125566488
30
0
11
130.41199554184021
21
-43.408628254005762
31
0
0
LINE
5
210
100
AcDbEntity
8
0
100
AcDbLine
10
160.13048875994059
20
-42.980780910611138
30
0
11
160.13048875994059
21
-46.99999988079071
31
0
0
LINE
5
211
100
AcDbEntity
8
0
100
AcDbLine
10
169.1285452195055
20
-51.957055527207274
30
0
11
155.0210871115311
21
-51.941990029480316
31
0
0
CIRCLE
5
212
100
AcDbEntity
8
0
100
AcDbCircle
10
160.13048875994059
20
-44.990390395700928
30
0
40
1.0000000000000004
0
LINE
5
213
100
AcDbEntity
8
0
100
AcDbLine
10
155.0210871115311
20
-51.941990029480316
30
0
11
155.02184992154261
21
-49.941990174950092
31
0
0
LINE
5
214
100
AcDbEntity
8
0
100
AcDbLine
10
190.13788926065101
20
-31.61890032904261
30
0
11
190.12565959030218
21
-58.244885221661775
31
0
0
LINE
5
215
100
AcDbEntity
8
0
100
AcDbLine
10
132.37714367027945
20
-43.036885287304791
30
0
11
130.41199554184021
21
-43.408628254005762
31
0
0
ARC
5
216
100
AcDbEntity
8
0
100
AcDbCircle
10
139.00325342016259
20
-98.990721366156265
30
0
40
58.241053892855732
100
AcDbArc
50
98.852709391054233
51
103.78025890393499
0
LINE
5
217
100
AcDbEntity
8
0
100
AcDbLine
10
155.02184992154261
20
-49.941990174950092
30
0
11
153.02185006701239
21
-49.941227364938605
31
0
0
LINE
5
218
100
AcDbEntity
8
0
100
AcDbLine
10
130.03701237220386
20
-49.938918441473874
30
0
11
132.03701222673408
21
-49.939681251485368
31
0
0
LINE
5
219
100
AcDbEntity
8
0
100
AcDbLine
10
90.128550965561956
20
-51.926924531753343
30
0
11
90.137899809087045
21
-31.57296899877224
31
0
0
LINE
5
220
100
AcDbEntity
8
0
100
AcDbLine
10
153.02185006701239
20
-49.941227364938605
30
0
11
153.02108356315387
21
-51.950912060254836
31
0
0
LINE
5
221
100
AcDbEntity
8
0
100
AcDbLine
10
130.03624956219238
20
-51.938918296004097
30
0
11
125.12854841984074
21
-51.94027370695445
31
0
0
LINE
5
222
100
AcDbEntity
8
0
100
AcDbLine
10
124.63891274517538
20
-51.9335991193539
30
0
11
90.128550965561956
21
-51.926924531753343
31
0
0
ARC
5
223
100
AcDbEntity
8
0
100
AcDbCircle
10
169.14731088316361
20
-2.755650169453725
30
0
40
49.201408936412705
100
AcDbArc
50
269.97814710235576
51
294.49508743847923
0
LINE
5
224
100
AcDbEntity
8
0
100
AcDbLine
10
153.02108356315387
20
-51.950912060254836
30
0
11
132.03624818583992
21
-51.942908338415023
31
0
0
ARC
5
225
100
AcDbEntity
8
0
100
AcDbCircle
10
205.4828261174066
20
-406.97050849286256
30
0
40
373.31294554000743
100
AcDbArc
50
102.50694914174559
51
107.99906897631379
0
ARC
5
226
100
AcDbEntity
8
0
100
AcDbCircle
10
94.223740960665282
20
-47.224985990690342
30
0
40
30.777487101397373
100
AcDbArc
50
-8.8001761827504446
51
8.8001761827506293
0
LINE
5
227
100
AcDbEntity
8
0
100
AcDbLine
10
188.17190276236133
20
-46.076465149250282
30
0
11
189.62421362569458
21
-44.701404002884658
31
0
0
ARC
5
228
100
AcDbEntity
8
0
100
AcDbCircle
10
162.97378638889217
20
-88.295875347676258
30
0
40
51.095236605147008
100
AcDbArc
50
58.561477103787233
51
98.948071458526329
0
CIRCLE
5
229
100
AcDbEntity
8
0
100
AcDbCircle
10
168.1305848374231
20
-44.65425828610676
30
0
40
5
0
ARC
5
230
100
AcDbEntity
8
0
100
AcDbCircle
10
186.04412347063544
20
-340.49856218317461
30
0
40
304.2640417506363
100
AcDbArc
50
96.22775463807227
51
100.2302711243389
0
LINE
5
231
100
AcDbEntity
8
0
100
AcDbLine
10
153.03728044994952
20
-38.030125125287967
30
0
11
153.24492325306809
21
-40.019317038179494
31
0
0
LINE
5
232
100
AcDbEntity
8
0
100
AcDbLine
10
90.137899809087045
20
-31.57296899877224
30
0
11
190.13788926065101
21
-31.61890032904261
31
0
0
LINE
5
233
100
AcDbEntity
8
0
100
AcDbLine
10
155.23411516595959
20
-39.81167423506092
30
0
11
155.02647236284102
21
-37.822482322169392
31
0
0
ENDSEC
0
SECTION
2
OBJECTS
0
DICTIONARY
5
C
100
AcDbDictionary
3
ACAD_GROUP
350
D
3
ACAD_MLINESTYLE
350
17
0
DICTIONARY
5
D
100
AcDbDictionary
0
DICTIONARY
5
1A
330
C
100
AcDbDictionary
0
DICTIONARY
5
17
100
AcDbDictionary
0
ENDSEC
0
EOF
