0
SECTION
2
HEADER
9
$INSUNITS
70
4
9
$ACADVER
1
AC1014
9
$HANDSEED
5
FFFF
0
ENDSEC
0
SECTION
2
TABLES
0
TABLE
2
VPORT
5
8
100
AcDbSymbolTable
0
ENDTAB
0
TABLE
2
LTYPE
5
5
100
AcDbSymbolTable
0
LTYPE
5
14
100
AcDbSymbolTableRecord
100
AcDbLinetypeTableRecord
2
BYBLOCK
70
0
0
LTYPE
5
15
100
AcDbSymbolTableRecord
100
AcDbLinetypeTableRecord
2
BYLAYER
70
0
0
ENDTAB
0
TABLE
2
LAYER
5
2
100
AcDbSymbolTable
70
2
0
LAYER
5
50
100
AcDbSymbolTableRecord
100
AcDbLayerTableRecord
2
0
70
0
6
CONTINUOUS
0
ENDTAB
0
TABLE
2
STYLE
5
3
100
AcDbSymbolTable
70
1
0
STYLE
5
11
100
AcDbSymbolTableRecord
100
AcDbTextStyleTableRecord
2
STANDARD
70
0
0
ENDTAB
0
TABLE
2
VIEW
5
6
100
AcDbSymbolTable
70
0
0
ENDTAB
0
TABLE
2
UCS
5
7
100
AcDbSymbolTable
70
0
0
ENDTAB
0
TABLE
2
APPID
5
9
100
AcDbSymbolTable
70
2
0
APPID
5
12
100
AcDbSymbolTableRecord
100
AcDbRegAppTableRecord
2
ACAD
70
0
0
ENDTAB
0
TABLE
2
DIMSTYLE
5
A
100
AcDbSymbolTable
70
1
0
ENDTAB
0
TABLE
2
BLOCK_RECORD
5
1
100
AcDbSymbolTable
70
1
0
BLOCK_RECORD
5
1F
100
AcDbSymbolTableRecord
100
AcDbBlockTableRecord
2
*MODEL_SPACE
0
BLOCK_RECORD
5
1B
100
AcDbSymbolTableRecord
100
AcDbBlockTableRecord
2
*PAPER_SPACE
0
ENDTAB
0
ENDSEC
0
SECTION
2
BLOCKS
0
BLOCK
5
20
100
AcDbEntity
100
AcDbBlockBegin
2
*MODEL_SPACE
0
ENDBLK
5
21
100
AcDbEntity
100
AcDbBlockEnd
0
BLOCK
5
1C
100
AcDbEntity
100
AcDbBlockBegin
2
*PAPER_SPACE
0
ENDBLK
5
1D
100
AcDbEntity
100
AcDbBlockEnd
0
ENDSEC
0
SECTION
2
ENTITIES
0
LWPOLYLINE
5
100
100
AcDbEntity
8
0
100
AcDbPolyline
90
72
70
1
43
0.0
10
25.404469638816106
20
-13.638255997242068
10
25.401880196165596
20
-13.638699744495998
10
25.739691570340231
20
-15.609964180201722
10
27.710956006045979
20
-15.272152806027016
10
27.709420560244236
20
-15.263192865855304
10
27.712010002894793
20
-15.262749118601366
10
27.751055844592756
20
-15.490597042731293
42
-0.39373365578463582
10
21.937259874074311
20
-24.355322514511087
10
21.413044714462906
20
-22.42524519314971
10
19.482967393101518
20
-22.949460352761129
10
19.485246629653805
20
-22.957958707169446
10
19.481913336648073
20
-22.958864040186779
10
19.997640641346198
20
-24.881803284455543
42
-0.043554001195181428
10
18.751055710482319
20
-24.990597184292298
10
-18.748943961692117
20
-24.990597184292305
42
-0.043625146460234375
10
-19.997541964997239
20
-24.881448916867367
10
-19.481909700764763
20
-22.958864040186779
10
-19.483278016250754
20
-22.958492401334311
10
-19.480855644311319
20
-22.949460352761122
10
-21.410932965672707
20
-22.42524519314971
10
-21.93514812528413
20
-24.355322514511109
42
-0.39373365578463593
10
-27.748944095802585
20
-15.490597042731283
10
-27.709898313709232
20
-15.262749118601366
10
-25.738633878003512
20
-15.600560492776072
10
-25.400822503828806
20
-13.629296057070341
10
-27.372086939534519
20
-13.291484682895636
10
-25.763165046869592
20
-3.9132273030014586
10
-24.114564519218426
20
5.0424536913457185
10
-22.147613930817336
20
4.6803689184145458
10
-21.785529157886153
20
6.6473195068156299
10
-23.75247974628725
20
7.0094042797467981
10
-21.70728456656601
20
18.119493924723869
10
-19.73425009951292
20
17.790458563391628
10
-19.372165326581765
20
19.757409151792714
10
-21.339115914982834
20
20.119493924723876
10
-20.623772526990717
20
24.005458701234595
42
-0.35257938029775865
10
-12.24894386483458
20
31.509403657623331
10
-12.248944781255977
20
31.499999970197678
10
-12.249997891485691
20
31.499999970197678
10
-12.249997891485691
20
29.499999970197681
10
-10.249997861683369
20
29.499999970197681
10
-10.249997861683369
20
29.509403627821001
10
-10.248944751453664
20
29.509403627821001
10
-10.248944751453664
20
31.509403657623324
10
10.251055554020141
20
31.509403657623324
10
10.251055554020141
20
31.499999970197678
10
10.250002443790454
20
31.499999970197678
10
10.250002443790454
20
29.499999940395355
10
12.250002473592776
20
29.499999940395355
10
12.250002473592776
20
29.50940365762332
10
12.251055583822463
20
29.50940365762332
10
12.251056500243877
20
31.509403657623317
42
-0.35257938029775865
10
20.625885162399999
20
24.005458701234591
10
21.341231299656354
20
20.119493924723876
10
19.374280711255267
20
19.757409151792714
10
19.375920377228713
20
19.748502005753014
10
19.373223018918555
20
19.748005464367072
10
19.735307791849674
20
17.781054875965982
10
21.708342258894785
20
18.110090237342764
42
-5.9526585361823011e-05
10
21.706736936678194
20
18.119049824038832
10
21.709399951239511
20
18.119493924723869
10
23.754591495077449
20
7.0094042797467981
10
23.700446936476261
20
6.999437115181415
10
23.700343209166892
20
7.0000005923211583
10
21.733392620765759
20
6.6379158193899945
10
22.095477393696914
20
4.670965230988906
10
22.149621952298158
20
4.6809323955542981
10
22.149725679607528
20
4.6803689184145458
10
24.116676268008614
20
5.0424536913457185
10
25.765276736055149
20
-3.9132273030014586
10
27.374198628720077
20
-13.291484682895636
10
25.402934193014364
20
-13.62929605707035
0
LWPOLYLINE
5
101
100
AcDbEntity
8
0
100
AcDbPolyline
90
8
70
1
43
0.0
10
-15.419575841232993
20
21.89655403614081
10
-22.147613930817336
20
-14.652120386046491
42
0.3988058725537163
10
-18.998943961692124
20
-19.490597102335894
10
19.00105571048233
20
-19.490597102335894
42
0.39880587255371447
10
22.149725679607535
20
-14.652120386046491
10
15.421687590023183
20
21.896554036140806
42
0.35581259968298645
10
10.001055576371872
20
26.509403583117518
10
-9.9989438275816767
20
26.509403583117511
42
0.35581259968298556
0
LINE
5
102
100
AcDbEntity
8
0
100
AcDbLine
10
22.148669775410113
20
4.670965230988906
30
0
11
24.115620363811203
21
5.0330500039200654
31
0
0
LINE
5
103
100
AcDbEntity
8
0
100
AcDbLine
10
21.786585002478933
20
6.6379158193899945
30
0
11
22.148669775410113
21
4.670965230988906
31
0
0
LINE
5
104
100
AcDbEntity
8
0
100
AcDbLine
10
27.749999970197674
20
-15.500000730156934
30
0
11
27.710954158302012
21
-15.272152806027016
31
0
0
LINE
5
105
100
AcDbEntity
8
0
100
AcDbLine
10
-30
20
-26.5
30
0
11
-30
21
0
31
0
0
LWPOLYLINE
5
106
100
AcDbEntity
8
0
100
AcDbPolyline
90
38
70
1
43
0.0
10
10.250000596046469
20
29.499999940395355
10
10.250000596046469
20
31.499999970197678
10
-10.249999709427353
20
31.499999970197678
10
-10.249999709427353
20
29.499999970197681
10
-12.249999739229676
20
29.499999970197681
10
-12.249999739229677
20
31.499999970197678
42
0.35257938029775782
10
-20.624828401385802
20
23.996055013808949
10
-21.340175455063584
20
20.11009023729823
10
-19.373224866662504
20
19.748005464367072
10
-19.735309639593641
20
17.781054875965982
10
-21.708344106646713
20
18.110090237298227
10
-23.330141680825314
20
9.3000005409121478
10
-21.800000804662698
20
9.3000005409121478
10
-20.894789869855348
20
14.217377195542667
10
-19.127839208003135
20
14.217377195542667
10
-18.861185226089994
20
14.217377195542667
10
-18.927839208003174
20
13.855292821619727
10
-19.766396160897326
20
9.3000005409121478
10
-18.250002175569531
20
9.3000005409121478
10
-16.000000715255744
20
23.499999850988385
42
-0.34310775014162598
10
-11.500000648200519
20
26.999999903142452
10
11.500000648200519
20
26.999999903142452
42
-0.3431077501416257
10
16.000000715255744
20
23.499999850988388
10
18.250002175569549
20
9.3000005409121478
10
19.766396160897344
20
9.3000005409121478
10
18.927839208003164
20
13.855292821619727
10
18.861185226090011
20
14.217377195542667
10
19.12783920800317
20
14.217377195542667
10
20.894789869855373
20
14.217377195542667
10
21.800000804662716
20
9.3000005409121478
10
23.330141680825349
20
9.3000005409121478
10
21.708340411158787
20
18.110090237298227
10
19.735305944105708
20
17.781054875965982
10
19.373221171174553
20
19.748005464367072
10
21.340171759575625
20
20.11009023729823
10
20.624829288004918
20
23.996055013808949
42
0.35257938029775848
10
12.250000625848788
20
31.499999970197674
10
12.250000625848774
20
29.499999940395355
0
LINE
5
107
100
AcDbEntity
8
0
100
AcDbLine
10
23.753535590880031
20
7.0000005923211583
30
0
11
23.391450817948876
21
8.9669511807222513
31
0
0
LINE
5
108
100
AcDbEntity
8
0
100
AcDbLine
10
-21.936203999679211
20
-24.364726201936723
30
0
11
-21.411988840067817
21
-22.434648880575331
31
0
0
LINE
5
109
100
AcDbEntity
8
0
100
AcDbLine
10
-27.710954158302012
20
-15.272152806027016
30
0
11
-25.739689722596282
21
-15.609964180201722
31
0
0
LINE
5
110
100
AcDbEntity
8
0
100
AcDbLine
10
-24.121704264036268
20
5.0000006370246419
30
0
11
-25.764220891462362
21
-3.9226309904271162
31
0
0
LINE
5
111
100
AcDbEntity
8
0
100
AcDbLine
10
27.710954158302012
20
-15.272152806027016
30
0
11
25.7396897225963
21
-15.609964180201722
31
0
0
CIRCLE
5
112
100
AcDbEntity
8
0
100
AcDbCircle
10
1.7763568394002505e-14
20
0
30
0
40
2.9999999999999982
0
LINE
5
113
100
AcDbEntity
8
0
100
AcDbLine
10
25.401878348421594
20
-13.638699744495998
30
0
11
27.373142784127307
21
-13.300888370321285
31
0
0
LINE
5
114
100
AcDbEntity
8
0
100
AcDbLine
10
23.753535590880031
20
7.0000005923211583
30
0
11
21.786585002478933
21
6.6379158193899945
31
0
0
LINE
5
115
100
AcDbEntity
8
0
100
AcDbLine
10
0
20
0
30
0
11
0.50000045448541641
21
0
31
0
0
LWPOLYLINE
5
116
100
AcDbEntity
8
0
100
AcDbPolyline
90
4
70
1
43
0.0
10
-30
20
-26.5
10
30.000000000000007
20
-26.5
10
30.000000000000007
20
33.5
10
-30
20
33.5
0
LINE
5
117
100
AcDbEntity
8
0
100
AcDbLine
10
-25.401878348421576
20
-13.638699744495998
30
0
11
-27.373142784127307
21
-13.300888370321285
31
0
0
LINE
5
118
100
AcDbEntity
8
0
100
AcDbLine
10
-23.391450817948858
20
8.9669511807222513
30
0
11
-18.250002175569531
21
8.9669511807222513
31
0
0
LINE
5
119
100
AcDbEntity
8
0
100
AcDbLine
10
-27.710954158302012
20
-15.272152806027016
30
0
11
-27.749999970197674
21
-15.500000730156934
31
0
0
LINE
5
120
100
AcDbEntity
8
0
100
AcDbLine
10
-25.739689722596282
20
-15.609964180201722
30
0
11
-25.401878348421576
21
-13.638699744495998
31
0
0
LINE
5
121
100
AcDbEntity
8
0
100
AcDbLine
10
18.250002175569549
20
8.9669511807222513
30
0
11
18.250002175569549
21
7.0000005923211583
31
0
0
LINE
5
122
100
AcDbEntity
8
0
100
AcDbLine
10
21.936203999679236
20
-24.364726201936723
30
0
11
21.411988840067817
21
-22.434648880575331
31
0
0
LINE
5
123
100
AcDbEntity
8
0
100
AcDbLine
10
-21.786585062083574
20
6.6379158193899945
30
0
11
-22.148669835014747
21
4.670965230988906
31
0
0
LINE
5
124
100
AcDbEntity
8
0
100
AcDbLine
10
0
20
0
30
0
11
4.9999995976686407
21
0
31
0
0
LINE
5
125
100
AcDbEntity
8
0
100
AcDbLine
10
0
20
0
30
0
11
1.7763568394002505e-14
21
5
31
0
0
ARC
5
126
100
AcDbEntity
8
0
100
AcDbCircle
10
18.749999836087241
20
-17.803778910523263
30
0
40
7.1962219611946754
100
AcDbArc
50
270
51
280.00314410156483
0
LINE
5
127
100
AcDbEntity
8
0
100
AcDbLine
10
25.764221778081478
20
-3.9226309904271162
30
0
11
24.121705150655401
21
5.0000006370246419
31
0
0
LINE
5
128
100
AcDbEntity
8
0
100
AcDbLine
10
-18.250002175569531
20
7.0000005923211583
30
0
11
-22.239976739415948
21
-16.257193289852779
31
0
0
LINE
5
129
100
AcDbEntity
8
0
100
AcDbLine
10
-23.753535590880048
20
7.0000005923211583
30
0
11
-23.391450817948858
21
8.9669511807222513
31
0
0
LINE
5
130
100
AcDbEntity
8
0
100
AcDbLine
10
25.764221778081478
20
-3.9226309904271162
30
0
11
24.121705150655401
21
5.0000006370246419
31
0
0
ARC
5
131
100
AcDbEntity
8
0
100
AcDbCircle
10
19.47238710254231
20
-16.731997443364794
30
0
40
2.8080226819459035
100
AcDbArc
50
-99.684772058833744
51
9.7348228315323553
0
LINE
5
132
100
AcDbEntity
8
0
100
AcDbLine
10
0
20
0
30
0
11
-4.9999999999999822
21
0
31
0
0
LINE
5
133
100
AcDbEntity
8
0
100
AcDbLine
10
-19.481911518706401
20
-22.958864040186779
30
0
11
-19.999999556690451
21
-24.890605507334577
31
0
0
ARC
5
134
100
AcDbEntity
8
0
100
AcDbCircle
10
-18.749999836087223
20
-17.803778910523263
30
0
40
7.1962219611946754
100
AcDbArc
50
259.99685589843517
51
270
0
LINE
5
135
100
AcDbEntity
8
0
100
AcDbLine
10
-21.411988840067817
20
-22.434648880575331
30
0
11
-19.481911518706401
21
-22.958864040186779
31
0
0
LINE
5
136
100
AcDbEntity
8
0
100
AcDbLine
10
19.000000759959214
20
-19.50000078976155
30
0
11
1.7763568394002505e-14
21
-19.500000789761543
31
0
0
LINE
5
137
100
AcDbEntity
8
0
100
AcDbLine
10
0
20
0
30
0
11
-4.9999999999999822
21
0
31
0
0
ARC
5
138
100
AcDbEntity
8
0
100
AcDbCircle
10
-20.087056412380857
20
-16.813182993581975
30
0
40
7.774648006646963
100
AcDbArc
50
170.27580050539979
51
256.24071759771397
0
LINE
5
139
100
AcDbEntity
8
0
100
AcDbLine
10
-22.148669835014747
20
4.670965230988906
30
0
11
-24.115620423415844
21
5.0330500039200654
31
0
0
LINE
5
140
100
AcDbEntity
8
0
100
AcDbLine
10
21.411988840067817
20
-22.434648880575331
30
0
11
19.481911518706436
21
-22.958864040186761
31
0
0
ARC
5
141
100
AcDbEntity
8
0
100
AcDbCircle
10
-19.47238710254231
20
-16.731997443364794
30
0
40
2.808022681945896
100
AcDbArc
50
170.26517716846783
51
279.6847720588334
0
LINE
5
142
100
AcDbEntity
8
0
100
AcDbLine
10
-18.749999836087227
20
-25.000000871717937
30
0
11
18.749999836087245
21
-25.000000871717937
31
0
0
LINE
5
143
100
AcDbEntity
8
0
100
AcDbLine
10
-24.115620423415844
20
5.0330500039200654
30
0
11
-24.121704264036268
21
5.0000006370246419
31
0
0
LINE
5
144
100
AcDbEntity
8
0
100
AcDbLine
10
25.7396897225963
20
-15.609964180201722
30
0
11
25.401878348421594
21
-13.638699744495998
31
0
0
LINE
5
145
100
AcDbEntity
8
0
100
AcDbLine
10
18.250002175569549
20
7.0000005923211583
30
0
11
22.239976739415958
21
-16.257193289852768
31
0
0
ARC
5
146
100
AcDbEntity
8
0
100
AcDbCircle
10
20.087056412380903
20
-16.813182993581975
30
0
40
7.7746480066469736
100
AcDbArc
50
-76.240717597714109
51
9.7241994946002741
0
LINE
5
147
100
AcDbEntity
8
0
100
AcDbLine
10
-24.121704264036268
20
5.0000006370246419
30
0
11
-25.764220891462362
21
-3.9226309904271162
31
0
0
LINE
5
148
100
AcDbEntity
8
0
100
AcDbLine
10
-23.753535650484636
20
7.0000005923211583
30
0
11
-21.786585062083574
21
6.6379158193899945
31
0
0
LINE
5
149
100
AcDbEntity
8
0
100
AcDbLine
10
-18.250002175569531
20
8.9669511807222513
30
0
11
-18.250002175569531
21
7.0000005923211583
31
0
0
LINE
5
150
100
AcDbEntity
8
0
100
AcDbLine
10
-19.000000759959232
20
-19.500000789761543
30
0
11
1.7763568394002505e-14
21
-19.500000789761543
31
0
0
LINE
5
151
100
AcDbEntity
8
0
100
AcDbLine
10
-27.373142784127307
20
-13.300888370321285
30
0
11
-25.764220891462362
21
-3.9226309904271162
31
0
0
LINE
5
152
100
AcDbEntity
8
0
100
AcDbLine
10
0.50000045448541641
20
0
30
0
11
5.5000005289912401
21
0
31
0
0
LINE
5
153
100
AcDbEntity
8
0
100
AcDbLine
10
0
20
0
30
0
11
1.7763568394002505e-14
21
-5
31
0
0
LINE
5
154
100
AcDbEntity
8
0
100
AcDbLine
10
27.373142784127307
20
-13.300888370321285
30
0
11
25.764220891462386
21
-3.9226309904271162
31
0
0
LINE
5
155
100
AcDbEntity
8
0
100
AcDbLine
10
24.115620363811203
20
5.0330500039200654
30
0
11
24.121705150655401
21
5.0000006370246419
31
0
0
LINE
5
156
100
AcDbEntity
8
0
100
AcDbLine
10
19.481911518706436
20
-22.958864040186761
30
0
11
19.999999556690476
21
-24.890605507334588
31
0
0
LINE
5
157
100
AcDbEntity
8
0
100
AcDbLine
10
23.391450817948876
20
8.9669511807222513
30
0
11
18.250002175569549
21
8.9669511807222513
31
0
0
CIRCLE
5
158
100
AcDbEntity
8
0
100
AcDbCircle
10
1.7763568394002505e-14
20
0
30
0
40
1.0000000000000009
0
ENDSEC
0
SECTION
2
OBJECTS
0
DICTIONARY
5
C
100
AcDbDictionary
3
ACAD_GROUP
350
D
3
ACAD_MLINESTYLE
350
17
0
DICTIONARY
5
D
100
AcDbDictionary
0
DICTIONARY
5
1A
330
C
100
AcDbDictionary
0
DICTIONARY
5
17
100
AcDbDictionary
0
ENDSEC
0
EOF
