0
SECTION
2
HEADER
9
$INSUNITS
70
4
9
$ACADVER
1
AC1014
9
$HANDSEED
5
FFFF
0
ENDSEC
0
SECTION
2
TABLES
0
TABLE
2
VPORT
5
8
100
AcDbSymbolTable
0
ENDTAB
0
TABLE
2
LTYPE
5
5
100
AcDbSymbolTable
0
LTYPE
5
14
100
AcDbSymbolTableRecord
100
AcDbLinetypeTableRecord
2
BYBLOCK
70
0
0
LTYPE
5
15
100
AcDbSymbolTableRecord
100
AcDbLinetypeTableRecord
2
BYLAYER
70
0
0
ENDTAB
0
TABLE
2
LAYER
5
2
100
AcDbSymbolTable
70
2
0
LAYER
5
50
100
AcDbSymbolTableRecord
100
AcDbLayerTableRecord
2
0
70
0
6
CONTINUOUS
0
ENDTAB
0
TABLE
2
STYLE
5
3
100
AcDbSymbolTable
70
1
0
STYLE
5
11
100
AcDbSymbolTableRecord
100
AcDbTextStyleTableRecord
2
STANDARD
70
0
0
ENDTAB
0
TABLE
2
VIEW
5
6
100
AcDbSymbolTable
70
0
0
ENDTAB
0
TABLE
2
UCS
5
7
100
AcDbSymbolTable
70
0
0
ENDTAB
0
TABLE
2
APPID
5
9
100
AcDbSymbolTable
70
2
0
APPID
5
12
100
AcDbSymbolTableRecord
100
AcDbRegAppTableRecord
2
ACAD
70
0
0
ENDTAB
0
TABLE
2
DIMSTYLE
5
A
100
AcDbSymbolTable
70
1
0
ENDTAB
0
TABLE
2
BLOCK_RECORD
5
1
100
AcDbSymbolTable
70
1
0
BLOCK_RECORD
5
1F
100
AcDbSymbolTableRecord
100
AcDbBlockTableRecord
2
*MODEL_SPACE
0
BLOCK_RECORD
5
1B
100
AcDbSymbolTableRecord
100
AcDbBlockTableRecord
2
*PAPER_SPACE
0
ENDTAB
0
ENDSEC
0
SECTION
2
BLOCKS
0
BLOCK
5
20
100
AcDbEntity
100
AcDbBlockBegin
2
*MODEL_SPACE
0
ENDBLK
5
21
100
AcDbEntity
100
AcDbBlockEnd
0
BLOCK
5
1C
100
AcDbEntity
100
AcDbBlockBegin
2
*PAPER_SPACE
0
ENDBLK
5
1D
100
AcDbEntity
100
AcDbBlockEnd
0
ENDSEC
0
SECTION
2
ENTITIES
0
ARC
5
100
100
AcDbEntity
8
0
100
AcDbCircle
10
25.765762298379702
20
18.703626003795296
30
0
40
6.0496419538441923
100
AcDbArc
50
113.5358660640333
51
190.43048174869477
0
LINE
5
101
100
AcDbEntity
8
0
100
AcDbLine
10
-21.116088898014826
20
17.608384387209032
30
0
11
-21.274828401385797
21
16.746055013808935
31
0
0
LINE
5
102
100
AcDbEntity
8
0
100
AcDbLine
10
19.816088898014836
20
17.608384387209036
30
0
11
19.974829288004905
21
16.746055013808935
31
0
0
ARC
5
103
100
AcDbEntity
8
0
100
AcDbCircle
10
-27.06576229837971
20
18.703626003795296
30
0
40
6.0496419538442048
100
AcDbArc
50
-10.430481748694742
51
66.464133935966501
0
LINE
5
104
100
AcDbEntity
8
0
100
AcDbLine
10
-0.14999954551457861
20
-7.2500000000000098
30
0
11
4.8500005289912274
21
-7.2500000000000098
31
0
0
LINE
5
105
100
AcDbEntity
8
0
100
AcDbLine
10
-23.499998768419026
20
-13.172630990427155
30
0
11
-23.414220891462367
21
-13.172630990427155
31
0
0
LWPOLYLINE
5
106
100
AcDbEntity
8
0
100
AcDbPolyline
90
12
70
1
43
0.0
10
-0.64999999999999503
20
-26.750000789761557
10
-19.649999836087222
20
-26.750000789761557
42
-0.39880587255371674
10
-22.79866980521243
20
-21.91152407347214
10
-19.175463889044941
20
-2.2292078274400806
10
-16.070631715628075
20
14.637150348715133
42
-0.35581259968298651
10
-10.649999701976771
20
19.249999895691857
10
-0.64999999999999503
20
19.249999895691857
10
9.3499997019767829
20
19.249999895691868
42
-0.35581259968298651
10
14.770631715628095
20
14.637150348715135
10
17.875463889044934
20
-2.2292078274400806
10
21.49866980521244
20
-21.911524073472137
42
-0.39880587255371702
10
18.349999836087232
20
-26.750000789761557
0
LINE
5
107
100
AcDbEntity
8
0
100
AcDbLine
10
21.286203999679216
20
-31.614726201936737
30
0
11
20.761988840067822
21
-29.684648880575356
31
0
0
LINE
5
108
100
AcDbEntity
8
0
100
AcDbLine
10
21.498669805212423
20
-2.5790347690110726
30
0
11
23.46562039361352
21
-2.2169499960799177
31
0
0
ARC
5
109
100
AcDbEntity
8
0
100
AcDbCircle
10
18.099999836087228
20
-25.05377891052326
30
0
40
7.1962219611946665
100
AcDbArc
50
270
51
280.00314410156483
0
ARC
5
110
100
AcDbEntity
8
0
100
AcDbCircle
10
19.437056412380898
20
-24.063182993582007
30
0
40
7.7746480066469648
100
AcDbArc
50
-76.240717597714166
51
9.7241994946003487
0
CIRCLE
5
111
100
AcDbEntity
8
0
100
AcDbCircle
10
-0.64999999999999503
20
-7.2500000000000098
30
0
40
1.0000000000000009
0
LINE
5
112
100
AcDbEntity
8
0
100
AcDbLine
10
23.46562039361352
20
-2.2169499960799177
30
0
11
25.114220861660055
21
-11.172630990427145
31
0
0
LINE
5
113
100
AcDbEntity
8
0
100
AcDbLine
10
24.751878318619269
20
-20.888699744496023
30
0
11
26.723142754324982
21
-20.550888370321282
31
0
0
LINE
5
114
100
AcDbEntity
8
0
100
AcDbLine
10
-20.131911518706431
20
-30.208864040186786
30
0
11
-20.649999556690446
21
-32.140605507334584
31
0
0
LWPOLYLINE
5
115
100
AcDbEntity
8
0
100
AcDbPolyline
90
4
70
1
43
0.0
10
29.350000000000005
20
-33.750000000000021
10
29.350000000000005
20
26.249999999999986
10
-30.649999999999995
20
26.249999999999986
10
-30.649999999999995
20
-33.750000000000014
0
LINE
5
116
100
AcDbEntity
8
0
100
AcDbLine
10
18.723224836860179
20
12.498005464367065
30
0
11
19.085309609791317
21
10.531054875965985
31
0
0
LINE
5
117
100
AcDbEntity
8
0
100
AcDbLine
10
27.060954128499706
20
-22.522152806027012
30
0
11
27.099999970197679
21
-22.750000730156952
31
0
0
LINE
5
118
100
AcDbEntity
8
0
100
AcDbLine
10
-19.399999836087218
20
-32.250000871717944
30
0
11
18.099999836087228
21
-32.250000871717923
31
0
0
LINE
5
119
100
AcDbEntity
8
0
100
AcDbLine
10
-26.059567331549118
20
-25.816860833760305
30
0
11
-28.398283782519069
21
-25.386340886769961
31
0
0
LINE
5
120
100
AcDbEntity
8
0
100
AcDbLine
10
-0.64999999999999503
20
-7.2500000000000098
30
0
11
-0.64999999999999503
21
-12.250000000000011
31
0
0
LINE
5
121
100
AcDbEntity
8
0
100
AcDbLine
10
19.085309609791317
20
10.531054875965985
30
0
11
21.058344076844406
21
10.860090237298227
31
0
0
LINE
5
122
100
AcDbEntity
8
0
100
AcDbLine
10
-21.406153110042041
20
16.032658901270466
30
0
11
-18.455726981681639
21
15.489533076909051
31
0
0
LINE
5
123
100
AcDbEntity
8
0
100
AcDbLine
10
19.974829288004905
20
16.746055013808935
30
0
11
20.690175425261259
21
12.860090237298213
31
0
0
LINE
5
124
100
AcDbEntity
8
0
100
AcDbLine
10
27.060954128499706
20
-22.522152806027012
30
0
11
25.089689692793975
21
-22.859964180201718
31
0
0
LINE
5
125
100
AcDbEntity
8
0
100
AcDbLine
10
20.761988840067822
20
-29.684648880575356
30
0
11
18.831911518706423
21
-30.208864040186786
31
0
0
LINE
5
126
100
AcDbEntity
8
0
100
AcDbLine
10
-18.455726981681639
20
15.489533076909051
30
0
11
-25.515250387946136
21
-22.859964180201725
31
0
0
LINE
5
127
100
AcDbEntity
8
0
100
AcDbLine
10
20.690175425261259
20
12.860090237298213
30
0
11
18.723224836860179
21
12.498005464367065
31
0
0
CIRCLE
5
128
100
AcDbEntity
8
0
100
AcDbCircle
10
-0.64999999999999503
20
-7.2500000000000098
30
0
40
2.9999999999999982
0
LINE
5
129
100
AcDbEntity
8
0
100
AcDbLine
10
-22.586203999679206
20
-31.614726201936737
30
0
11
-22.061988840067812
21
-29.684648880575356
31
0
0
LINE
5
130
100
AcDbEntity
8
0
100
AcDbLine
10
21.058344076844406
20
10.860090237298227
30
0
11
23.103535620682347
21
-0.24999940767885587
31
0
0
LINE
5
131
100
AcDbEntity
8
0
100
AcDbLine
10
-25.515250387946136
20
-22.859964180201725
30
0
11
-26.059567331549118
21
-25.816860833760305
31
0
0
ARC
5
132
100
AcDbEntity
8
0
100
AcDbCircle
10
-20.737056412380905
20
-24.063182993582007
30
0
40
7.7746480066469701
100
AcDbArc
50
189.79879555664513
51
256.24071759771431
0
LINE
5
133
100
AcDbEntity
8
0
100
AcDbLine
10
21.136585032281285
20
-0.6120841806100108
30
0
11
21.498669805212423
21
-2.5790347690110726
31
0
0
LINE
5
134
100
AcDbEntity
8
0
100
AcDbLine
10
-21.406153110042041
20
16.032658901270466
30
0
11
-21.37284139281455
21
16.213618370476567
31
0
0
LINE
5
135
100
AcDbEntity
8
0
100
AcDbLine
10
26.723142754324982
20
-20.550888370321282
30
0
11
25.114220861660055
21
-11.172630990427145
31
0
0
LINE
5
136
100
AcDbEntity
8
0
100
AcDbLine
10
18.831911518706423
20
-30.208864040186786
30
0
11
19.349999556690456
21
-32.140605507334577
31
0
0
LINE
5
137
100
AcDbEntity
8
0
100
AcDbLine
10
-22.061988840067812
20
-29.684648880575356
30
0
11
-20.131911518706431
21
-30.208864040186786
31
0
0
LINE
5
138
100
AcDbEntity
8
0
100
AcDbLine
10
25.089689692793975
20
-22.859964180201718
30
0
11
24.751878318619269
21
-20.888699744496023
31
0
0
LINE
5
139
100
AcDbEntity
8
0
100
AcDbLine
10
-0.64999999999999503
20
-7.2500000000000098
30
0
11
-0.14999954551457861
21
-7.2500000000000098
31
0
0
LINE
5
140
100
AcDbEntity
8
0
100
AcDbLine
10
-0.64999999999999503
20
-7.2500000000000098
30
0
11
-5.649999999999995
21
-7.2500000000000098
31
0
0
LINE
5
141
100
AcDbEntity
8
0
100
AcDbLine
10
-0.64999999999999503
20
-2.2500004246830896
30
0
11
-0.64999999999999503
21
-7.2500000000000098
31
0
0
LINE
5
142
100
AcDbEntity
8
0
100
AcDbLine
10
-30.649999999999995
20
-33.750000000000014
30
0
11
-30.649999999999995
21
-7.2500000000000098
31
0
0
LINE
5
143
100
AcDbEntity
8
0
100
AcDbLine
10
-21.274828401385797
20
16.746055013808935
30
0
11
-21.37284139281455
21
16.213618370476567
31
0
0
LINE
5
144
100
AcDbEntity
8
0
100
AcDbLine
10
23.103535620682347
20
-0.24999940767885587
30
0
11
21.136585032281285
21
-0.6120841806100108
31
0
0
ARC
5
145
100
AcDbEntity
8
0
100
AcDbCircle
10
-19.399999836087218
20
-25.05377891052326
30
0
40
7.1962219611946745
100
AcDbArc
50
259.99685589843523
51
270
0
LINE
5
146
100
AcDbEntity
8
0
100
AcDbLine
10
-24.650000804662699
20
24.249999970197663
30
0
11
-24.633118909670188
21
24.749714890548724
31
0
0
LINE
5
147
100
AcDbEntity
8
0
100
AcDbLine
10
-24.633118909670188
20
24.749714890548724
30
0
11
23.387238184619022
21
24.988470774132484
31
0
0
LINE
5
148
100
AcDbEntity
8
0
100
AcDbLine
10
23.387238184619022
20
24.988470774132484
30
0
11
23.350000804662709
21
24.249999970197674
31
0
0
ENDSEC
0
SECTION
2
OBJECTS
0
DICTIONARY
5
C
100
AcDbDictionary
3
ACAD_GROUP
350
D
3
ACAD_MLINESTYLE
350
17
0
DICTIONARY
5
D
100
AcDbDictionary
0
DICTIONARY
5
1A
330
C
100
AcDbDictionary
0
DICTIONARY
5
17
100
AcDbDictionary
0
ENDSEC
0
EOF
