0
SECTION
2
HEADER
9
$INSUNITS
70
4
9
$ACADVER
1
AC1014
9
$HANDSEED
5
FFFF
0
ENDSEC
0
SECTION
2
TABLES
0
TABLE
2
VPORT
5
8
100
AcDbSymbolTable
0
ENDTAB
0
TABLE
2
LTYPE
5
5
100
AcDbSymbolTable
0
LTYPE
5
14
100
AcDbSymbolTableRecord
100
AcDbLinetypeTableRecord
2
BYBLOCK
70
0
0
LTYPE
5
15
100
AcDbSymbolTableRecord
100
AcDbLinetypeTableRecord
2
BYLAYER
70
0
0
ENDTAB
0
TABLE
2
LAYER
5
2
100
AcDbSymbolTable
70
2
0
LAYER
5
50
100
AcDbSymbolTableRecord
100
AcDbLayerTableRecord
2
0
70
0
6
CONTINUOUS
0
ENDTAB
0
TABLE
2
STYLE
5
3
100
AcDbSymbolTable
70
1
0
STYLE
5
11
100
AcDbSymbolTableRecord
100
AcDbTextStyleTableRecord
2
STANDARD
70
0
0
ENDTAB
0
TABLE
2
VIEW
5
6
100
AcDbSymbolTable
70
0
0
ENDTAB
0
TABLE
2
UCS
5
7
100
AcDbSymbolTable
70
0
0
ENDTAB
0
TABLE
2
APPID
5
9
100
AcDbSymbolTable
70
2
0
APPID
5
12
100
AcDbSymbolTableRecord
100
AcDbRegAppTableRecord
2
ACAD
70
0
0
ENDTAB
0
TABLE
2
DIMSTYLE
5
A
100
AcDbSymbolTable
70
1
0
ENDTAB
0
TABLE
2
BLOCK_RECORD
5
1
100
AcDbSymbolTable
70
1
0
BLOCK_RECORD
5
1F
100
AcDbSymbolTableRecord
100
AcDbBlockTableRecord
2
*MODEL_SPACE
0
BLOCK_RECORD
5
1B
100
AcDbSymbolTableRecord
100
AcDbBlockTableRecord
2
*PAPER_SPACE
0
ENDTAB
0
ENDSEC
0
SECTION
2
BLOCKS
0
BLOCK
5
20
100
AcDbEntity
100
AcDbBlockBegin
2
*MODEL_SPACE
0
ENDBLK
5
21
100
AcDbEntity
100
AcDbBlockEnd
0
BLOCK
5
1C
100
AcDbEntity
100
AcDbBlockBegin
2
*PAPER_SPACE
0
ENDBLK
5
1D
100
AcDbEntity
100
AcDbBlockEnd
0
ENDSEC
0
SECTION
2
ENTITIES
0
LINE
5
100
100
AcDbEntity
8
0
100
AcDbLine
10
20.811990658009485
20
-31.934648880575324
30
0
11
18.881913336648068
21
-32.458864040186775
31
0
0
LINE
5
101
100
AcDbEntity
8
0
100
AcDbLine
10
25.139691570340279
20
-25.109964180201718
30
0
11
24.801880196165556
21
-23.138699744495995
31
0
0
LWPOLYLINE
5
102
100
AcDbEntity
8
0
100
AcDbPolyline
90
4
70
1
43
0.0
10
-30.599999999999987
20
-36
10
29.399999999999995
20
-36
10
29.399999999999995
20
54
10
-30.599999999999987
20
54
0
LINE
5
103
100
AcDbEntity
8
0
100
AcDbLine
10
27.110956006045992
20
-24.772152806027012
30
0
11
25.139691570340279
21
-25.109964180201718
31
0
0
ARC
5
104
100
AcDbEntity
8
0
100
AcDbCircle
10
-18.623633509164534
20
-24.920878264241352
30
0
40
4.1943447918124308
100
AcDbArc
50
169.56951825130534
51
256.53913335940251
0
CIRCLE
5
105
100
AcDbEntity
8
0
100
AcDbCircle
10
-0.60000000000000497
20
-9.4999999999999964
30
0
40
3.0000000000000027
0
ARC
5
106
100
AcDbEntity
8
0
100
AcDbCircle
10
18.150001654028873
20
-27.303778910523263
30
0
40
7.1962219611946754
100
AcDbArc
50
270
51
280.00314410156477
0
LINE
5
107
100
AcDbEntity
8
0
100
AcDbLine
10
-0.60000000000000497
20
-9.4999999999999964
30
0
11
-0.60000000000000497
21
-14.499999999999996
31
0
0
ARC
5
108
100
AcDbEntity
8
0
100
AcDbCircle
10
25.815762298379692
20
16.453626003795311
30
0
40
6.0496419538441994
100
AcDbArc
50
113.53586606403347
51
190.4304817486946
0
ARC
5
109
100
AcDbEntity
8
0
100
AcDbCircle
10
19.48705823032256
20
-26.313182993581975
30
0
40
7.7746480066469843
100
AcDbArc
50
-76.24071759771401
51
9.7241994946003487
0
LINE
5
110
100
AcDbEntity
8
0
100
AcDbLine
10
-25.465250387946146
20
-25.109964180201718
30
0
11
-26.009567331549128
21
-28.066860833760288
31
0
0
ARC
5
111
100
AcDbEntity
8
0
100
AcDbCircle
10
-27.01576229837972
20
16.453626003795307
30
0
40
6.0496419538441852
100
AcDbArc
50
-10.430481748694691
51
66.464133935966686
0
ARC
5
112
100
AcDbEntity
8
0
100
AcDbCircle
10
-19.349998018145556
20
-27.303778910523263
30
0
40
7.1962219611946745
100
AcDbArc
50
259.99685589843523
51
270
0
LWPOLYLINE
5
113
100
AcDbEntity
8
0
100
AcDbPolyline
90
4
70
1
43
0.0
10
-10.849997861683391
20
19.999999970197681
10
-10.849997861683391
20
21.999999970197681
10
-12.849997891485696
20
21.999999970197681
10
-12.849997891485696
20
19.999999970197685
0
LINE
5
114
100
AcDbEntity
8
0
100
AcDbLine
10
-12.599998807907102
20
13.999999850988388
30
0
11
11.39999880790711
21
13.999999850988388
31
0
0
CIRCLE
5
115
100
AcDbEntity
8
0
100
AcDbCircle
10
-0.60000000000000497
20
-9.4999999999999964
30
0
40
1.0000000000000009
0
ARC
5
116
100
AcDbEntity
8
0
100
AcDbCircle
10
11.39999880790711
20
9.5662319919321348
30
0
40
4.4337678590562621
100
AcDbArc
50
39.511643463671334
51
90
0
LINE
5
117
100
AcDbEntity
8
0
100
AcDbLine
10
-20.081909700764768
20
-32.458864040186775
30
0
11
-20.599997738748783
21
-34.390605507334591
31
0
0
LINE
5
118
100
AcDbEntity
8
0
100
AcDbLine
10
23.153537438623992
20
-2.499999407678839
30
0
11
21.108342258902759
21
8.6100902372982286
31
0
0
LINE
5
119
100
AcDbEntity
8
0
100
AcDbLine
10
-0.60000000000000497
20
-9.4999999999999964
30
0
11
4.399999999999995
21
-9.4999999999999964
31
0
0
LINE
5
120
100
AcDbEntity
8
0
100
AcDbLine
10
21.336205817620908
20
-33.864726201936719
30
0
11
20.811990658009485
21
-31.934648880575324
31
0
0
LINE
5
121
100
AcDbEntity
8
0
100
AcDbLine
10
-26.009567331549128
20
-28.066860833760288
30
0
11
-28.348283782519079
21
-27.63634088676994
31
0
0
LINE
5
122
100
AcDbEntity
8
0
100
AcDbLine
10
-22.011987022126149
20
-31.934648880575324
30
0
11
-20.081909700764768
21
-32.458864040186775
31
0
0
LINE
5
123
100
AcDbEntity
8
0
100
AcDbLine
10
-0.60000000000000497
20
-9.4999999999999964
30
0
11
-5.600000000000005
21
-9.4999999999999964
31
0
0
LINE
5
124
100
AcDbEntity
8
0
100
AcDbLine
10
-0.60000000000000497
20
-9.4999999999999964
30
0
11
-0.60000000000000497
21
-8.0000004768371547
31
0
0
LINE
5
125
100
AcDbEntity
8
0
100
AcDbLine
10
17.925465706986579
20
-4.4792078274400859
30
0
11
21.548671623154085
21
-24.16152407347214
31
0
0
LINE
5
126
100
AcDbEntity
8
0
100
AcDbLine
10
-0.60000000000000497
20
-8.0000004768371547
30
0
11
-0.60000000000000497
21
-3.0000004768371547
31
0
0
LINE
5
127
100
AcDbEntity
8
0
100
AcDbLine
10
-21.224828401385825
20
14.496055013808945
30
0
11
-21.32284139281456
21
13.963618370476594
31
0
0
CIRCLE
5
128
100
AcDbEntity
8
0
100
AcDbCircle
10
-0.60000000000000497
20
-9.4999999999999964
30
0
40
0.99999999999999645
0
LINE
5
129
100
AcDbEntity
8
0
100
AcDbLine
10
-28.310952310558051
20
-24.772152806027012
30
0
11
-28.349998152256024
21
-25.00000073015693
31
0
0
LINE
5
130
100
AcDbEntity
8
0
100
AcDbLine
10
-23.449998768419036
20
-15.422630990427129
30
0
11
-23.364220891462359
21
-15.422630990427129
31
0
0
LINE
5
131
100
AcDbEntity
8
0
100
AcDbLine
10
-21.356153110042051
20
13.782658901270493
30
0
11
-21.32284139281456
21
13.963618370476594
31
0
0
ARC
5
132
100
AcDbEntity
8
0
100
AcDbCircle
10
17.423637145047834
20
-24.920878264241352
30
0
40
4.1943447918124317
100
AcDbArc
50
-76.539133359402555
51
10.430481748694763
0
LINE
5
133
100
AcDbEntity
8
0
100
AcDbLine
10
17.925465706986579
20
-4.4792078274400859
30
0
11
14.820633533569758
21
12.387150348715162
31
0
0
LINE
5
134
100
AcDbEntity
8
0
100
AcDbLine
10
-18.405726981681667
20
13.239533076909066
30
0
11
-25.465250387946146
21
-25.109964180201718
31
0
0
LINE
5
135
100
AcDbEntity
8
0
100
AcDbLine
10
19.135307791849687
20
8.2810548759659852
30
0
11
21.108342258902759
21
8.6100902372982286
31
0
0
LINE
5
136
100
AcDbEntity
8
0
100
AcDbLine
10
-21.066088898014854
20
15.358384387209053
30
0
11
-21.224828401385825
21
14.496055013808945
31
0
0
LINE
5
137
100
AcDbEntity
8
0
100
AcDbLine
10
21.18658685022293
20
-2.8620841806100028
30
0
11
21.548671623154085
21
-4.8290347690110913
31
0
0
LINE
5
138
100
AcDbEntity
8
0
100
AcDbLine
10
-19.125462071103279
20
-4.4792078274400859
30
0
11
-16.02062989768644
21
12.387150348715164
31
0
0
LINE
5
139
100
AcDbEntity
8
0
100
AcDbLine
10
23.153537438623992
20
-2.499999407678839
30
0
11
21.18658685022293
21
-2.8620841806100028
31
0
0
ARC
5
140
100
AcDbEntity
8
0
100
AcDbCircle
10
-12.599998807907102
20
9.5662319919321348
30
0
40
4.4337678590562524
100
AcDbArc
50
90
51
140.48835653632887
0
LINE
5
141
100
AcDbEntity
8
0
100
AcDbLine
10
18.881913336648068
20
-32.458864040186775
30
0
11
19.400001374632101
21
-34.390605507334591
31
0
0
LINE
5
142
100
AcDbEntity
8
0
100
AcDbLine
10
27.110956006045992
20
-24.772152806027012
30
0
11
27.150001788139349
21
-25.00000073015692
31
0
0
LINE
5
143
100
AcDbEntity
8
0
100
AcDbLine
10
24.801880196165556
20
-23.138699744495995
30
0
11
26.773144631871268
21
-22.800888370321282
31
0
0
LINE
5
144
100
AcDbEntity
8
0
100
AcDbLine
10
18.150001654028873
20
-34.500000871717937
30
0
11
-19.349998018145556
21
-34.500000871717937
31
0
0
LWPOLYLINE
5
145
100
AcDbEntity
8
0
100
AcDbPolyline
90
4
70
1
43
0.0
10
11.650002473592753
20
19.999999940395359
10
11.650002473592753
20
21.999999970197678
10
9.6500024437904308
20
21.999999970197681
10
9.6500024437904308
20
19.999999940395359
0
LINE
5
146
100
AcDbEntity
8
0
100
AcDbLine
10
18.77322301891855
20
10.248005464367074
30
0
11
19.135307791849687
21
8.2810548759659852
31
0
0
LINE
5
147
100
AcDbEntity
8
0
100
AcDbLine
10
20.740173607319594
20
10.610090237298234
30
0
11
18.77322301891855
21
10.248005464367074
31
0
0
LINE
5
148
100
AcDbEntity
8
0
100
AcDbLine
10
-22.536202181737544
20
-33.864726201936726
30
0
11
-22.011987022126149
21
-31.934648880575324
31
0
0
LINE
5
149
100
AcDbEntity
8
0
100
AcDbLine
10
-19.125462071103279
20
-4.4792078274400859
30
0
11
-22.748667987270785
21
-24.161524073472151
31
0
0
LINE
5
150
100
AcDbEntity
8
0
100
AcDbLine
10
-30.599999999999987
20
-36
30
0
11
-30.599999999999987
21
-9.5000000000000018
31
0
0
LINE
5
151
100
AcDbEntity
8
0
100
AcDbLine
10
-18.405726981681667
20
13.239533076909066
30
0
11
-21.356153110042051
21
13.782658901270493
31
0
0
LINE
5
152
100
AcDbEntity
8
0
100
AcDbLine
10
23.515622211555183
20
-4.4669499960799319
30
0
11
26.773144631871268
21
-22.800888370321282
31
0
0
LINE
5
153
100
AcDbEntity
8
0
100
AcDbLine
10
18.400001654028877
20
-29.00000078976155
30
0
11
-0.59999818205834998
21
-29.000000789761543
31
0
0
LINE
5
154
100
AcDbEntity
8
0
100
AcDbLine
10
20.740173607319594
20
10.610090237298234
30
0
11
19.866088898014809
21
15.358384387209066
31
0
0
LINE
5
155
100
AcDbEntity
8
0
100
AcDbLine
10
21.548671623154085
20
-4.8290347690110913
30
0
11
23.515622211555183
21
-4.4669499960799319
31
0
0
ARC
5
156
100
AcDbEntity
8
0
100
AcDbCircle
10
-20.687056412380915
20
-26.313182993582011
30
0
40
7.7746480066469656
100
AcDbArc
50
189.79879555664493
51
256.24071759771414
0
LINE
5
157
100
AcDbEntity
8
0
100
AcDbLine
10
-19.599998018145577
20
-29.00000078976155
30
0
11
-0.59999818205834998
21
-29.000000789761543
31
0
0
LINE
5
158
100
AcDbEntity
8
0
100
AcDbLine
10
-24.600000804662727
20
21.999999970197681
30
0
11
-24.600000804662727
21
24.283999970197684
31
0
0
LINE
5
159
100
AcDbEntity
8
0
100
AcDbLine
10
-3.5999986737966694
20
34.583876264598658
30
0
11
-18.599998673796669
21
34.583876264598658
31
0
0
LINE
5
160
100
AcDbEntity
8
0
100
AcDbLine
10
-18.599998673796669
20
34.583876264598658
30
0
11
-18.599998673796669
21
24.283999970197684
31
0
0
LINE
5
161
100
AcDbEntity
8
0
100
AcDbLine
10
-18.599998673796669
20
24.283999970197684
30
0
11
-24.600000804662727
21
24.283999970197684
31
0
0
LINE
5
162
100
AcDbEntity
8
0
100
AcDbLine
10
23.400003457069403
20
21.999999970197681
30
0
11
23.400003457069403
21
24.283999970197684
31
0
0
LINE
5
163
100
AcDbEntity
8
0
100
AcDbLine
10
17.400001326203345
20
24.283999970197684
30
0
11
23.400003457069403
21
24.283999970197684
31
0
0
LINE
5
164
100
AcDbEntity
8
0
100
AcDbLine
10
17.400001326203345
20
34.583876264598658
30
0
11
17.400001326203345
21
24.283999970197684
31
0
0
LINE
5
165
100
AcDbEntity
8
0
100
AcDbLine
10
2.4000013262033448
20
34.583876264598658
30
0
11
17.400001326203345
21
34.583876264598658
31
0
0
LINE
5
166
100
AcDbEntity
8
0
100
AcDbLine
10
-3.5999986737966694
20
24.283999970197684
30
0
11
2.4000013262033448
21
24.283999970197684
31
0
0
LINE
5
167
100
AcDbEntity
8
0
100
AcDbLine
10
-3.5999986737966694
20
34.583876264598658
30
0
11
-3.5999986737966694
21
24.283999970197684
31
0
0
LINE
5
168
100
AcDbEntity
8
0
100
AcDbLine
10
2.4000013262033448
20
34.583876264598658
30
0
11
2.4000013262033448
21
24.283999970197684
31
0
0
ENDSEC
0
SECTION
2
OBJECTS
0
DICTIONARY
5
C
100
AcDbDictionary
3
ACAD_GROUP
350
D
3
ACAD_MLINESTYLE
350
17
0
DICTIONARY
5
D
100
AcDbDictionary
0
DICTIONARY
5
1A
330
C
100
AcDbDictionary
0
DICTIONARY
5
17
100
AcDbDictionary
0
ENDSEC
0
EOF
