0
SECTION
2
HEADER
9
$INSUNITS
70
4
9
$ACADVER
1
AC1014
9
$HANDSEED
5
FFFF
0
ENDSEC
0
SECTION
2
TABLES
0
TABLE
2
VPORT
5
8
100
AcDbSymbolTable
0
ENDTAB
0
TABLE
2
LTYPE
5
5
100
AcDbSymbolTable
0
LTYPE
5
14
100
AcDbSymbolTableRecord
100
AcDbLinetypeTableRecord
2
BYBLOCK
70
0
0
LTYPE
5
15
100
AcDbSymbolTableRecord
100
AcDbLinetypeTableRecord
2
BYLAYER
70
0
0
ENDTAB
0
TABLE
2
LAYER
5
2
100
AcDbSymbolTable
70
2
0
LAYER
5
50
100
AcDbSymbolTableRecord
100
AcDbLayerTableRecord
2
0
70
0
6
CONTINUOUS
0
ENDTAB
0
TABLE
2
STYLE
5
3
100
AcDbSymbolTable
70
1
0
STYLE
5
11
100
AcDbSymbolTableRecord
100
AcDbTextStyleTableRecord
2
STANDARD
70
0
0
ENDTAB
0
TABLE
2
VIEW
5
6
100
AcDbSymbolTable
70
0
0
ENDTAB
0
TABLE
2
UCS
5
7
100
AcDbSymbolTable
70
0
0
ENDTAB
0
TABLE
2
APPID
5
9
100
AcDbSymbolTable
70
2
0
APPID
5
12
100
AcDbSymbolTableRecord
100
AcDbRegAppTableRecord
2
ACAD
70
0
0
ENDTAB
0
TABLE
2
DIMSTYLE
5
A
100
AcDbSymbolTable
70
1
0
ENDTAB
0
TABLE
2
BLOCK_RECORD
5
1
100
AcDbSymbolTable
70
1
0
BLOCK_RECORD
5
1F
100
AcDbSymbolTableRecord
100
AcDbBlockTableRecord
2
*MODEL_SPACE
0
BLOCK_RECORD
5
1B
100
AcDbSymbolTableRecord
100
AcDbBlockTableRecord
2
*PAPER_SPACE
0
ENDTAB
0
ENDSEC
0
SECTION
2
BLOCKS
0
BLOCK
5
20
100
AcDbEntity
100
AcDbBlockBegin
2
*MODEL_SPACE
0
ENDBLK
5
21
100
AcDbEntity
100
AcDbBlockEnd
0
BLOCK
5
1C
100
AcDbEntity
100
AcDbBlockBegin
2
*PAPER_SPACE
0
ENDBLK
5
1D
100
AcDbEntity
100
AcDbBlockEnd
0
ENDSEC
0
SECTION
2
ENTITIES
0
LINE
5
100
100
AcDbEntity
8
0
100
AcDbLine
10
-0.099999545514588561
20
-9.5999999999999943
30
0
11
4.9000005289912352
21
-9.5999999999999943
31
0
0
CIRCLE
5
101
100
AcDbEntity
8
0
100
AcDbCircle
10
-0.60000000000000497
20
-9.5999999999999943
30
0
40
1.0000000000000009
0
CIRCLE
5
102
100
AcDbEntity
8
0
100
AcDbCircle
10
-0.60000000000000497
20
-9.5999999999999943
30
0
40
1.0000000000000009
0
LWPOLYLINE
5
103
100
AcDbEntity
8
0
100
AcDbPolyline
90
6
70
1
43
0.0
10
29.399999999999995
20
-36.099999999999994
10
29.399999999999995
20
23.900000000000006
10
29.399999999999995
20
33.899999999999999
10
-30.600000000000005
20
33.900000000000006
10
-30.600000000000005
20
23.900000000000002
10
-30.600000000000005
20
-36.100000000000001
0
ARC
5
104
100
AcDbEntity
8
0
100
AcDbCircle
10
-27.015762298379702
20
16.353626003795306
30
0
40
6.0496419538441861
100
AcDbArc
50
-10.430481748694691
51
66.4641339359667
0
LINE
5
105
100
AcDbEntity
8
0
100
AcDbLine
10
-20.081911518706423
20
-32.558864040186769
30
0
11
-20.599999556690456
21
-34.490605507334571
31
0
0
ARC
5
106
100
AcDbEntity
8
0
100
AcDbCircle
10
25.81576229837971
20
16.353626003795313
30
0
40
6.0496419538441915
100
AcDbArc
50
113.53586606403339
51
190.4304817486946
0
ARC
5
107
100
AcDbEntity
8
0
100
AcDbCircle
10
18.149999836087218
20
-27.403778910523261
30
0
40
7.1962219611946754
100
AcDbArc
50
270
51
280.00314410156477
0
CIRCLE
5
108
100
AcDbEntity
8
0
100
AcDbCircle
10
-0.60000000000000497
20
-9.5999999999999943
30
0
40
2.9999999999999982
0
ARC
5
109
100
AcDbEntity
8
0
100
AcDbCircle
10
-19.349999836087228
20
-27.403778910523261
30
0
40
7.1962219611946567
100
AcDbArc
50
259.99685589843517
51
270
0
LINE
5
110
100
AcDbEntity
8
0
100
AcDbLine
10
-23.449998768419036
20
-15.522630990427126
30
0
11
-23.364220891462359
21
-15.522630990427126
31
0
0
LINE
5
111
100
AcDbEntity
8
0
100
AcDbLine
10
-22.011988840067804
20
-32.034648880575325
30
0
11
-20.081911518706423
21
-32.558864040186769
31
0
0
LINE
5
112
100
AcDbEntity
8
0
100
AcDbLine
10
-30.600000000000005
20
-36.100000000000001
30
0
11
-30.600000000000005
21
-9.5999999999999996
31
0
0
LINE
5
113
100
AcDbEntity
8
0
100
AcDbLine
10
-21.066088898014836
20
15.25838438720905
30
0
11
-21.224828401385807
21
14.396055013808947
31
0
0
LINE
5
114
100
AcDbEntity
8
0
100
AcDbLine
10
-19.349999836087228
20
-34.600000871718017
30
0
11
18.149999836087218
21
-34.600000871717938
31
0
0
LINE
5
115
100
AcDbEntity
8
0
100
AcDbLine
10
21.336203999679224
20
-33.96472620193672
30
0
11
20.811988840067819
21
-32.034648880575332
31
0
0
LINE
5
116
100
AcDbEntity
8
0
100
AcDbLine
10
20.811988840067819
20
-32.034648880575332
30
0
11
18.881911518706431
21
-32.558864040186769
31
0
0
LINE
5
117
100
AcDbEntity
8
0
100
AcDbLine
10
25.139689692793983
20
-25.209964180201716
30
0
11
24.801878318619277
21
-23.238699744495996
31
0
0
LINE
5
118
100
AcDbEntity
8
0
100
AcDbLine
10
19.866088898014844
20
15.258384387209068
30
0
11
20.024829288004895
21
14.396055013808953
31
0
0
ARC
5
119
100
AcDbEntity
8
0
100
AcDbCircle
10
-27.015762298379702
20
16.353626003795306
30
0
40
6.0496419538441861
100
AcDbArc
50
-10.430481748694691
51
66.4641339359667
0
ARC
5
120
100
AcDbEntity
8
0
100
AcDbCircle
10
19.487056412380888
20
-26.413182993581973
30
0
40
7.774648006646987
100
AcDbArc
50
-76.240717597714109
51
9.7241994946003487
0
LINE
5
121
100
AcDbEntity
8
0
100
AcDbLine
10
-0.60000000000000497
20
-9.5999999999999943
30
0
11
-0.60000000000000497
21
-4.5999999999999952
31
0
0
LINE
5
122
100
AcDbEntity
8
0
100
AcDbLine
10
24.801878318619277
20
-23.238699744495996
30
0
11
26.77314275432499
21
-22.90088837032128
31
0
0
LINE
5
123
100
AcDbEntity
8
0
100
AcDbLine
10
-22.536203999679216
20
-33.96472620193672
30
0
11
-22.011988840067804
21
-32.034648880575325
31
0
0
LINE
5
124
100
AcDbEntity
8
0
100
AcDbLine
10
27.110954128499696
20
-24.87215280602701
30
0
11
25.139689692793983
21
-25.209964180201716
31
0
0
LINE
5
125
100
AcDbEntity
8
0
100
AcDbLine
10
-0.60000000000000497
20
-9.5999999999999943
30
0
11
-0.099999545514588561
21
-9.5999999999999943
31
0
0
LINE
5
126
100
AcDbEntity
8
0
100
AcDbLine
10
18.881911518706431
20
-32.558864040186769
30
0
11
19.399999556690446
21
-34.490605507334585
31
0
0
ARC
5
127
100
AcDbEntity
8
0
100
AcDbCircle
10
25.81576229837971
20
16.353626003795313
30
0
40
6.0496419538441915
100
AcDbArc
50
113.53586606403339
51
190.4304817486946
0
LINE
5
128
100
AcDbEntity
8
0
100
AcDbLine
10
-0.60000000000000497
20
-9.5999999999999943
30
0
11
-5.600000000000005
21
-9.5999999999999943
31
0
0
LWPOLYLINE
5
129
100
AcDbEntity
8
0
100
AcDbPolyline
90
12
70
1
43
0.0
10
21.54866980521243
20
-24.261524073472145
42
-0.39880587255371552
10
18.399999836087222
20
-29.100000789761545
10
-0.60000000000000497
20
-29.100000789761541
10
-19.599999836087232
20
-29.100000789761541
42
-0.39880587255371486
10
-22.748669805212423
20
-24.261524073472138
10
-19.125463889044951
20
-4.5792078274400838
10
-16.020631715628081
20
12.287150348715164
42
-0.35581259968298656
10
-10.599999701976763
20
16.899999895691874
10
-0.60000000000000497
20
16.899999895691877
10
9.3999997019767871
20
16.899999895691884
42
-0.35581259968298601
10
14.820631715628103
20
12.287150348715162
10
17.925463889044941
20
-4.5792078274400838
0
LINE
5
130
100
AcDbEntity
8
0
100
AcDbLine
10
20.740175425261249
20
10.510090237298236
30
0
11
18.77322483686017
21
10.148005464367076
31
0
0
ARC
5
131
100
AcDbEntity
8
0
100
AcDbCircle
10
-20.687056412380915
20
-26.413182993582009
30
0
40
7.7746480066469648
100
AcDbArc
50
189.79879555664488
51
256.24071759771425
0
LINE
5
132
100
AcDbEntity
8
0
100
AcDbLine
10
19.135309609791324
20
8.1810548759659873
30
0
11
21.108344076844414
21
8.5100902372982308
31
0
0
LINE
5
133
100
AcDbEntity
8
0
100
AcDbLine
10
-12.849999709427369
20
21.899999970197683
30
0
11
-10.849999679625029
21
21.899999970197683
31
0
0
LINE
5
134
100
AcDbEntity
8
0
100
AcDbLine
10
-26.009567331549128
20
-28.166860833760289
30
0
11
-28.348283782519079
21
-27.736340886769927
31
0
0
LINE
5
135
100
AcDbEntity
8
0
100
AcDbLine
10
-21.356153110042051
20
13.682658901270495
30
0
11
-21.322841392814542
21
13.863618370476596
31
0
0
LINE
5
136
100
AcDbEntity
8
0
100
AcDbLine
10
18.77322483686017
20
10.148005464367076
30
0
11
19.135309609791324
21
8.1810548759659873
31
0
0
LINE
5
137
100
AcDbEntity
8
0
100
AcDbLine
10
-21.224828401385807
20
14.396055013808947
30
0
11
-21.322841392814542
21
13.863618370476596
31
0
0
LWPOLYLINE
5
138
100
AcDbEntity
8
0
100
AcDbPolyline
90
4
70
1
43
0.0
10
9.6499996796250365
20
21.899999970197683
10
11.649999709427359
20
21.899999970197683
10
11.649999709427359
20
19.899999970197687
10
9.6499996796250365
20
19.899999970197687
0
LINE
5
139
100
AcDbEntity
8
0
100
AcDbLine
10
21.108344076844414
20
8.5100902372982308
30
0
11
23.153535620682348
21
-2.5999994076788369
31
0
0
LINE
5
140
100
AcDbEntity
8
0
100
AcDbLine
10
-0.60000000000000497
20
-9.5999999999999943
30
0
11
-0.60000000000000497
21
-14.599999999999994
31
0
0
LINE
5
141
100
AcDbEntity
8
0
100
AcDbLine
10
23.153535620682348
20
-2.5999994076788369
30
0
11
21.186585032281275
21
-2.9620841806100007
31
0
0
LINE
5
142
100
AcDbEntity
8
0
100
AcDbLine
10
-21.356153110042051
20
13.682658901270495
30
0
11
-18.405726981681649
21
13.139533076909068
31
0
0
LINE
5
143
100
AcDbEntity
8
0
100
AcDbLine
10
-18.405726981681649
20
13.139533076909068
30
0
11
-25.465250387946128
21
-25.209964180201716
31
0
0
LINE
5
144
100
AcDbEntity
8
0
100
AcDbLine
10
-10.850000625848768
20
19.899999940395361
30
0
11
-12.85000065565109
21
19.899999940395364
31
0
0
LINE
5
145
100
AcDbEntity
8
0
100
AcDbLine
10
26.77314275432499
20
-22.90088837032128
30
0
11
25.164220861660056
21
-13.52263099042711
31
0
0
LINE
5
146
100
AcDbEntity
8
0
100
AcDbLine
10
20.024829288004895
20
14.396055013808953
30
0
11
20.740175425261249
21
10.510090237298236
31
0
0
LINE
5
147
100
AcDbEntity
8
0
100
AcDbLine
10
21.186585032281275
20
-2.9620841806100007
30
0
11
21.54866980521242
21
-4.9290347690110892
31
0
0
LINE
5
148
100
AcDbEntity
8
0
100
AcDbLine
10
-25.465250387946128
20
-25.209964180201716
30
0
11
-26.009567331549128
21
-28.166860833760289
31
0
0
LINE
5
149
100
AcDbEntity
8
0
100
AcDbLine
10
23.51562039361351
20
-4.5669499960799298
30
0
11
25.164220861660056
21
-13.52263099042711
31
0
0
LINE
5
150
100
AcDbEntity
8
0
100
AcDbLine
10
21.54866980521242
20
-4.9290347690110892
30
0
11
23.51562039361351
21
-4.5669499960799298
31
0
0
LINE
5
151
100
AcDbEntity
8
0
100
AcDbLine
10
-12.85000065565109
20
19.899999940395364
30
0
11
-12.85000065565109
21
21.899999970197683
31
0
0
LINE
5
152
100
AcDbEntity
8
0
100
AcDbLine
10
-10.850000625848768
20
21.899999970197683
30
0
11
-10.850000625848768
21
19.899999940395361
31
0
0
LINE
5
153
100
AcDbEntity
8
0
100
AcDbLine
10
27.110954128499696
20
-24.87215280602701
30
0
11
27.149999970197669
21
-25.100000730156921
31
0
0
LINE
5
154
100
AcDbEntity
8
0
100
AcDbLine
10
-24.600000804662709
20
21.899999970197683
30
0
11
-24.600000804662709
21
22.663999970197683
31
0
0
LINE
5
155
100
AcDbEntity
8
0
100
AcDbLine
10
-24.600000804662709
20
22.663999970197683
30
0
11
-18.60008476475965
21
22.663999970197683
31
0
0
LINE
5
156
100
AcDbEntity
8
0
100
AcDbLine
10
-3.5999995976686527
20
22.663999970197683
30
0
11
2.4000004917383144
21
22.663999970197683
31
0
0
LINE
5
157
100
AcDbEntity
8
0
100
AcDbLine
10
23.40000080466271
20
22.663999970197683
30
0
11
23.40000080466271
21
21.899999970197683
31
0
0
LINE
5
158
100
AcDbEntity
8
0
100
AcDbLine
10
-3.6000004917383244
20
29.900000089406973
30
0
11
-3.5999995976686527
21
22.663999970197683
31
0
0
LINE
5
159
100
AcDbEntity
8
0
100
AcDbLine
10
2.4000004917383144
20
29.900000089406973
30
0
11
2.4000004917383144
21
22.663999970197683
31
0
0
LINE
5
160
100
AcDbEntity
8
0
100
AcDbLine
10
-3.6000004917383244
20
29.900000089406973
30
0
11
-18.6000004917382
21
29.89999823602875
31
0
0
LINE
5
161
100
AcDbEntity
8
0
100
AcDbLine
10
-18.6000004917382
20
29.89999823602875
30
0
11
-18.600000416553222
21
29.291501525541218
31
0
0
LINE
5
162
100
AcDbEntity
8
0
100
AcDbLine
10
-18.600000416553222
20
29.291501525541218
30
0
11
-18.60008476475965
21
22.663999970197683
31
0
0
LINE
5
163
100
AcDbEntity
8
0
100
AcDbLine
10
-18.60008476475965
20
22.663999970197683
30
0
11
-21.600042784711171
21
22.663999970197683
31
0
0
LINE
5
164
100
AcDbEntity
8
0
100
AcDbLine
10
2.4000013858079861
20
29.900000089406973
30
0
11
2.4000004917383144
21
22.663999970197683
31
0
0
LINE
5
165
100
AcDbEntity
8
0
100
AcDbLine
10
2.4000013858079861
20
29.900000089406973
30
0
11
17.400001385807862
21
29.89999823602875
31
0
0
LINE
5
166
100
AcDbEntity
8
0
100
AcDbLine
10
17.400001310622883
20
29.291501525541218
30
0
11
17.400085658829312
21
22.663999970197683
31
0
0
LINE
5
167
100
AcDbEntity
8
0
100
AcDbLine
10
17.400085658829312
20
22.663999970197683
30
0
11
20.400043678780833
21
22.663999970197683
31
0
0
LINE
5
168
100
AcDbEntity
8
0
100
AcDbLine
10
23.400001698732371
20
22.663999970197683
30
0
11
17.400085658829312
21
22.663999970197683
31
0
0
LINE
5
169
100
AcDbEntity
8
0
100
AcDbLine
10
17.400001385807862
20
29.89999823602875
30
0
11
17.400001310622883
21
29.291501525541218
31
0
0
ENDSEC
0
SECTION
2
OBJECTS
0
DICTIONARY
5
C
100
AcDbDictionary
3
ACAD_GROUP
350
D
3
ACAD_MLINESTYLE
350
17
0
DICTIONARY
5
D
100
AcDbDictionary
0
DICTIONARY
5
1A
330
C
100
AcDbDictionary
0
DICTIONARY
5
17
100
AcDbDictionary
0
ENDSEC
0
EOF
