0
SECTION
2
HEADER
9
$INSUNITS
70
4
9
$ACADVER
1
AC1014
9
$HANDSEED
5
FFFF
0
ENDSEC
0
SECTION
2
TABLES
0
TABLE
2
VPORT
5
8
100
AcDbSymbolTable
0
ENDTAB
0
TABLE
2
LTYPE
5
5
100
AcDbSymbolTable
0
LTYPE
5
14
100
AcDbSymbolTableRecord
100
AcDbLinetypeTableRecord
2
BYBLOCK
70
0
0
LTYPE
5
15
100
AcDbSymbolTableRecord
100
AcDbLinetypeTableRecord
2
BYLAYER
70
0
0
ENDTAB
0
TABLE
2
LAYER
5
2
100
AcDbSymbolTable
70
2
0
LAYER
5
50
100
AcDbSymbolTableRecord
100
AcDbLayerTableRecord
2
0
70
0
6
CONTINUOUS
0
ENDTAB
0
TABLE
2
STYLE
5
3
100
AcDbSymbolTable
70
1
0
STYLE
5
11
100
AcDbSymbolTableRecord
100
AcDbTextStyleTableRecord
2
STANDARD
70
0
0
ENDTAB
0
TABLE
2
VIEW
5
6
100
AcDbSymbolTable
70
0
0
ENDTAB
0
TABLE
2
UCS
5
7
100
AcDbSymbolTable
70
0
0
ENDTAB
0
TABLE
2
APPID
5
9
100
AcDbSymbolTable
70
2
0
APPID
5
12
100
AcDbSymbolTableRecord
100
AcDbRegAppTableRecord
2
ACAD
70
0
0
ENDTAB
0
TABLE
2
DIMSTYLE
5
A
100
AcDbSymbolTable
70
1
0
ENDTAB
0
TABLE
2
BLOCK_RECORD
5
1
100
AcDbSymbolTable
70
1
0
BLOCK_RECORD
5
1F
100
AcDbSymbolTableRecord
100
AcDbBlockTableRecord
2
*MODEL_SPACE
0
BLOCK_RECORD
5
1B
100
AcDbSymbolTableRecord
100
AcDbBlockTableRecord
2
*PAPER_SPACE
0
ENDTAB
0
ENDSEC
0
SECTION
2
BLOCKS
0
BLOCK
5
20
100
AcDbEntity
100
AcDbBlockBegin
2
*MODEL_SPACE
0
ENDBLK
5
21
100
AcDbEntity
100
AcDbBlockEnd
0
BLOCK
5
1C
100
AcDbEntity
100
AcDbBlockBegin
2
*PAPER_SPACE
0
ENDBLK
5
1D
100
AcDbEntity
100
AcDbBlockEnd
0
ENDSEC
0
SECTION
2
ENTITIES
0
LINE
5
100
100
AcDbEntity
8
0
100
AcDbLine
10
73.649353150282764
20
20.873054650310934
30
0
11
36.149353478108338
21
20.873054650310916
31
0
0
LINE
5
101
100
AcDbEntity
8
0
100
AcDbLine
10
78.599694705420745
20
52.873056114349964
30
0
11
76.632744117019612
21
52.510971341418802
31
0
0
LWPOLYLINE
5
102
100
AcDbEntity
8
0
100
AcDbPolyline
90
4
70
1
43
0.0
10
84.899351496253871
20
19.373055522028864
10
24.89935149625396
20
19.373055522028846
10
24.899351496253921
20
109.37305552202871
10
84.899351496253828
20
109.37305552202871
0
ARC
5
103
100
AcDbEntity
8
0
100
AcDbCircle
10
36.875718016891724
20
30.452177257787469
30
0
40
4.1943447918123864
100
AcDbArc
50
169.56951825130531
51
256.539133359402
0
LINE
5
104
100
AcDbEntity
8
0
100
AcDbLine
10
76.835557313874787
20
21.508329320092145
30
0
11
76.311342154263286
21
23.438406641453525
31
0
0
LINE
5
105
100
AcDbEntity
8
0
100
AcDbLine
10
76.239525103573385
20
65.98314575932703
30
0
11
74.272574515172408
21
65.621060986395861
31
0
0
LINE
5
106
100
AcDbEntity
8
0
100
AcDbLine
10
34.433262598239082
20
70.731439909237821
30
0
11
34.274523094868073
21
69.869110535837706
31
0
0
ARC
5
107
100
AcDbEntity
8
0
100
AcDbCircle
10
74.986409726576468
20
29.059872528446874
30
0
40
7.7746480066469736
100
AcDbArc
50
-76.240717597714166
51
9.724199494600235
0
LINE
5
108
100
AcDbEntity
8
0
100
AcDbLine
10
29.489784164704808
20
27.306194688268537
30
0
11
27.151067713734847
21
27.736714635258885
31
0
0
LINE
5
109
100
AcDbEntity
8
0
100
AcDbLine
10
54.8993514962539
20
45.873055522028814
30
0
11
49.899351496253921
21
45.873055522028814
31
0
0
CIRCLE
5
110
100
AcDbEntity
8
0
100
AcDbCircle
10
66.149349372838401
20
84.642807445745305
30
0
40
1
0
CIRCLE
5
111
100
AcDbEntity
8
0
100
AcDbCircle
10
66.149349372838415
20
68.10305549222646
30
0
40
0.99999999999999645
0
LINE
5
112
100
AcDbEntity
8
0
100
AcDbLine
10
43.899353627119915
20
59.373055224005562
30
0
11
65.89934936538782
21
59.373055224005576
31
0
0
ARC
5
113
100
AcDbEntity
8
0
100
AcDbCircle
10
81.315113794633504
20
71.826681525824085
30
0
40
6.0496419538442101
100
AcDbArc
50
113.53586606403347
51
190.43048174869463
0
ARC
5
114
100
AcDbEntity
8
0
100
AcDbCircle
10
66.677980514933637
20
53.20509812699629
30
0
40
6.2169092978416254
100
AcDbArc
50
10.43048174869501
51
97.194851902429932
0
LINE
5
115
100
AcDbEntity
8
0
100
AcDbLine
10
82.610307502299833
20
30.600902716001833
30
0
11
80.639043066594084
21
30.263091341827135
31
0
0
LWPOLYLINE
5
116
100
AcDbEntity
8
0
100
AcDbPolyline
90
4
70
1
43
0.0
10
65.149353940044321
20
77.373055492226428
10
67.149353969846629
20
77.373055492226428
10
67.149353969846629
20
75.373055462424148
10
65.149353940044321
20
75.373055462424134
0
LINE
5
117
100
AcDbEntity
8
0
100
AcDbLine
10
78.9617794783519
20
50.906105525948881
30
0
11
82.272496128125127
21
32.572167151707561
31
0
0
CIRCLE
5
118
100
AcDbEntity
8
0
100
AcDbCircle
10
43.64935361966937
20
84.642807445745305
30
0
40
1
0
LINE
5
119
100
AcDbEntity
8
0
100
AcDbLine
10
82.610307502299833
20
30.600902716001833
30
0
11
82.649353284393243
21
30.373054791871908
31
0
0
LINE
5
120
100
AcDbEntity
8
0
100
AcDbLine
10
80.301231692419464
20
32.234355777532848
30
0
11
82.272496128125127
21
32.572167151707561
31
0
0
ARC
5
121
100
AcDbEntity
8
0
100
AcDbCircle
10
72.922988671104036
20
30.45217725778749
30
0
40
4.1943447918124193
100
AcDbArc
50
-76.53913335940301
51
10.430481748694973
0
LINE
5
122
100
AcDbEntity
8
0
100
AcDbLine
10
76.311342154263286
20
23.438406641453525
30
0
11
74.381264832901905
21
22.914191481842078
31
0
0
LINE
5
123
100
AcDbEntity
8
0
100
AcDbLine
10
54.8993514962539
20
45.873055522028814
30
0
11
54.8993514962539
21
40.873055522028814
31
0
0
LINE
5
124
100
AcDbEntity
8
0
100
AcDbLine
10
36.373889454952923
20
50.893847694588707
30
0
11
32.750683538785516
21
31.211531448556666
31
0
0
LINE
5
125
100
AcDbEntity
8
0
100
AcDbLine
10
74.272574515172408
20
65.621060986395861
30
0
11
74.634659288103492
21
63.654110397994764
31
0
0
LINE
5
126
100
AcDbEntity
8
0
100
AcDbLine
10
35.899353507910654
20
26.37305473226732
30
0
11
54.899353343997923
21
26.373054732267299
31
0
0
LINE
5
127
100
AcDbEntity
8
0
100
AcDbLine
10
30.034101108307777
20
30.263091341827103
30
0
11
29.489784164704808
21
27.306194688268537
31
0
0
LINE
5
128
100
AcDbEntity
8
0
100
AcDbLine
10
32.963149314516393
20
21.508329320092127
30
0
11
33.487364474127752
21
23.438406641453486
31
0
0
ARC
5
129
100
AcDbEntity
8
0
100
AcDbCircle
10
73.649353150282764
20
28.069276611505586
30
0
40
7.1962219611946576
100
AcDbArc
50
270
51
280.00314410156483
0
LINE
5
130
100
AcDbEntity
8
0
100
AcDbLine
10
75.365440394268617
20
70.731439909237835
30
0
11
76.239525103573385
21
65.98314575932703
31
0
0
LINE
5
131
100
AcDbEntity
8
0
100
AcDbLine
10
73.899353180085043
20
26.373054732267299
30
0
11
54.899353343997923
21
26.373054732267299
31
0
0
ARC
5
132
100
AcDbEntity
8
0
100
AcDbCircle
10
34.812295083872996
20
29.059872528446821
30
0
40
7.7746480066469514
100
AcDbArc
50
189.79879555664502
51
256.24071759771476
0
LINE
5
133
100
AcDbEntity
8
0
100
AcDbLine
10
37.093624514572205
20
68.612588598937833
30
0
11
30.034101108307777
21
30.263091341827103
31
0
0
LINE
5
134
100
AcDbEntity
8
0
100
AcDbLine
10
74.381264832901905
20
22.914191481842078
30
0
11
74.899352870885991
21
20.98245001469428
31
0
0
LINE
5
135
100
AcDbEntity
8
0
100
AcDbLine
10
24.89935149625396
20
19.373055522028842
30
0
11
24.899351496253939
21
45.873055522028793
31
0
0
LINE
5
136
100
AcDbEntity
8
0
100
AcDbLine
10
36.373889454952923
20
50.893847694588707
30
0
11
37.006545776861195
21
54.330622222717615
31
0
0
LINE
5
137
100
AcDbEntity
8
0
100
AcDbLine
10
80.639043066594084
20
30.263091341827135
30
0
11
80.301231692419464
21
32.234355777532848
31
0
0
ARC
5
138
100
AcDbEntity
8
0
100
AcDbCircle
10
28.483589197874203
20
71.826681525824057
30
0
40
6.0496419538442003
100
AcDbArc
50
-10.430481748694486
51
66.464133935966487
0
LINE
5
139
100
AcDbEntity
8
0
100
AcDbLine
10
35.417441795489133
20
22.914191481842042
30
0
11
34.899353757505111
21
20.982450014694255
31
0
0
LINE
5
140
100
AcDbEntity
8
0
100
AcDbLine
10
54.8993514962539
20
45.873055030290494
30
0
11
54.8993514962539
21
50.873055030290487
31
0
0
ARC
5
141
100
AcDbEntity
8
0
100
AcDbCircle
10
36.149353478108338
20
28.069276611505568
30
0
40
7.1962219611946656
100
AcDbArc
50
259.99685589843517
51
270
0
LINE
5
142
100
AcDbEntity
8
0
100
AcDbLine
10
33.487364474127752
20
23.438406641453486
30
0
11
35.417441795489133
21
22.914191481842042
31
0
0
LINE
5
143
100
AcDbEntity
8
0
100
AcDbLine
10
78.89935230091649
20
77.37305549222647
30
0
11
78.899352300916547
21
82.904931786627415
31
0
0
LINE
5
144
100
AcDbEntity
8
0
100
AcDbLine
10
36.899351496253871
20
89.904931786627401
30
0
11
36.899351496253871
21
82.904931786627415
31
0
0
LINE
5
145
100
AcDbEntity
8
0
100
AcDbLine
10
72.8993514962539
20
82.904931786627415
30
0
11
78.899352300916547
21
82.904931786627415
31
0
0
LINE
5
146
100
AcDbEntity
8
0
100
AcDbLine
10
30.899350691591216
20
77.373055492226428
30
0
11
30.89935069159122
21
82.904931786627401
31
0
0
LINE
5
147
100
AcDbEntity
8
0
100
AcDbLine
10
54.899351496253885
20
82.904931786627415
30
0
11
57.899351496253892
21
82.904931786627415
31
0
0
LINE
5
148
100
AcDbEntity
8
0
100
AcDbLine
10
36.899351496253871
20
82.904931786627415
30
0
11
30.89935069159122
21
82.904931786627401
31
0
0
LINE
5
149
100
AcDbEntity
8
0
100
AcDbLine
10
57.899351496253892
20
89.904931786627401
30
0
11
72.8993514962539
21
89.904931786627401
31
0
0
LINE
5
150
100
AcDbEntity
8
0
100
AcDbLine
10
51.899351496253878
20
89.904931786627401
30
0
11
36.899351496253871
21
89.904931786627401
31
0
0
LINE
5
151
100
AcDbEntity
8
0
100
AcDbLine
10
72.8993514962539
20
89.904931786627401
30
0
11
72.8993514962539
21
82.904931786627415
31
0
0
LINE
5
152
100
AcDbEntity
8
0
100
AcDbLine
10
57.899351496253892
20
82.904931786627415
30
0
11
57.899351496253892
21
89.904931786627401
31
0
0
LINE
5
153
100
AcDbEntity
8
0
100
AcDbLine
10
37.093624514572205
20
68.612588598937833
30
0
11
34.143198386211864
21
69.155714423299258
31
0
0
LINE
5
154
100
AcDbEntity
8
0
100
AcDbLine
10
74.634659288103492
20
63.654110397994764
30
0
11
76.607693755156589
21
63.983145759327051
31
0
0
LINE
5
155
100
AcDbEntity
8
0
100
AcDbLine
10
76.607693755156589
20
63.983145759327051
30
0
11
78.599694705420745
21
52.873056114349964
31
0
0
CIRCLE
5
156
100
AcDbEntity
8
0
100
AcDbCircle
10
54.8993514962539
20
45.873055522028814
30
0
40
3.0000000000000027
0
LINE
5
157
100
AcDbEntity
8
0
100
AcDbLine
10
34.274523094868073
20
69.869110535837706
30
0
11
34.176510103439355
21
69.33667389250536
31
0
0
LWPOLYLINE
5
158
100
AcDbEntity
8
0
100
AcDbPolyline
90
4
70
1
43
0.0
10
42.64935360476823
20
77.373055492226456
10
44.649353634570552
20
77.373055492226456
10
44.649353634570552
20
75.373055492226442
10
42.64935360476823
20
75.373055492226442
0
LINE
5
159
100
AcDbEntity
8
0
100
AcDbLine
10
73.424817233042731
20
50.893847694588729
30
0
11
77.04802314921028
21
31.211531448556716
31
0
0
CIRCLE
5
160
100
AcDbEntity
8
0
100
AcDbCircle
10
43.649353619669391
20
68.103055492226446
30
0
40
0.99999999999999645
0
ARC
5
161
100
AcDbEntity
8
0
100
AcDbCircle
10
43.120722477574098
20
53.20509812699629
30
0
40
6.21690929784166
100
AcDbArc
50
82.805148097570083
51
169.5695182513052
0
LINE
5
162
100
AcDbEntity
8
0
100
AcDbLine
10
51.899351496253878
20
82.904931786627415
30
0
11
51.899351496253878
21
89.904931786627401
31
0
0
LINE
5
163
100
AcDbEntity
8
0
100
AcDbLine
10
34.143198386211864
20
69.155714423299258
30
0
11
34.176510103439355
21
69.33667389250536
31
0
0
LINE
5
164
100
AcDbEntity
8
0
100
AcDbLine
10
76.994828889950767
20
50.544020753017719
30
0
11
78.9617794783519
21
50.906105525948881
31
0
0
LINE
5
165
100
AcDbEntity
8
0
100
AcDbLine
10
54.8993514962539
20
45.873055522028814
30
0
11
59.899351496253885
21
45.873055522028814
31
0
0
LINE
5
166
100
AcDbEntity
8
0
100
AcDbLine
10
76.632744117019612
20
52.510971341418802
30
0
11
76.994828889950767
21
50.544020753017719
31
0
0
LINE
5
167
100
AcDbEntity
8
0
100
AcDbLine
10
54.899351496253885
20
82.904931786627415
30
0
11
51.899351496253878
21
82.904931786627415
31
0
0
LINE
5
168
100
AcDbEntity
8
0
100
AcDbLine
10
32.049352727834858
20
39.950424531601669
30
0
11
32.13513060479157
21
39.950424531601669
31
0
0
LINE
5
169
100
AcDbEntity
8
0
100
AcDbLine
10
73.424813537554797
20
50.893847694588729
30
0
11
72.792157215646526
21
54.330622222717636
31
0
0
CIRCLE
5
170
100
AcDbEntity
8
0
100
AcDbCircle
10
54.8993514962539
20
45.873055030290494
30
0
40
0.99999999999999645
0
ENDSEC
0
SECTION
2
OBJECTS
0
DICTIONARY
5
C
100
AcDbDictionary
3
ACAD_GROUP
350
D
3
ACAD_MLINESTYLE
350
17
0
DICTIONARY
5
D
100
AcDbDictionary
0
DICTIONARY
5
1A
330
C
100
AcDbDictionary
0
DICTIONARY
5
17
100
AcDbDictionary
0
ENDSEC
0
EOF
