0
SECTION
2
HEADER
9
$INSUNITS
70
4
9
$ACADVER
1
AC1014
9
$HANDSEED
5
FFFF
0
ENDSEC
0
SECTION
2
TABLES
0
TABLE
2
VPORT
5
8
100
AcDbSymbolTable
0
ENDTAB
0
TABLE
2
LTYPE
5
5
100
AcDbSymbolTable
0
LTYPE
5
14
100
AcDbSymbolTableRecord
100
AcDbLinetypeTableRecord
2
BYBLOCK
70
0
0
LTYPE
5
15
100
AcDbSymbolTableRecord
100
AcDbLinetypeTableRecord
2
BYLAYER
70
0
0
ENDTAB
0
TABLE
2
LAYER
5
2
100
AcDbSymbolTable
70
2
0
LAYER
5
50
100
AcDbSymbolTableRecord
100
AcDbLayerTableRecord
2
0
70
0
6
CONTINUOUS
0
ENDTAB
0
TABLE
2
STYLE
5
3
100
AcDbSymbolTable
70
1
0
STYLE
5
11
100
AcDbSymbolTableRecord
100
AcDbTextStyleTableRecord
2
STANDARD
70
0
0
ENDTAB
0
TABLE
2
VIEW
5
6
100
AcDbSymbolTable
70
0
0
ENDTAB
0
TABLE
2
UCS
5
7
100
AcDbSymbolTable
70
0
0
ENDTAB
0
TABLE
2
APPID
5
9
100
AcDbSymbolTable
70
2
0
APPID
5
12
100
AcDbSymbolTableRecord
100
AcDbRegAppTableRecord
2
ACAD
70
0
0
ENDTAB
0
TABLE
2
DIMSTYLE
5
A
100
AcDbSymbolTable
70
1
0
ENDTAB
0
TABLE
2
BLOCK_RECORD
5
1
100
AcDbSymbolTable
70
1
0
BLOCK_RECORD
5
1F
100
AcDbSymbolTableRecord
100
AcDbBlockTableRecord
2
*MODEL_SPACE
0
BLOCK_RECORD
5
1B
100
AcDbSymbolTableRecord
100
AcDbBlockTableRecord
2
*PAPER_SPACE
0
ENDTAB
0
ENDSEC
0
SECTION
2
BLOCKS
0
BLOCK
5
20
100
AcDbEntity
100
AcDbBlockBegin
2
*MODEL_SPACE
0
ENDBLK
5
21
100
AcDbEntity
100
AcDbBlockEnd
0
BLOCK
5
1C
100
AcDbEntity
100
AcDbBlockBegin
2
*PAPER_SPACE
0
ENDBLK
5
1D
100
AcDbEntity
100
AcDbBlockEnd
0
ENDSEC
0
SECTION
2
ENTITIES
0
CIRCLE
5
100
100
AcDbEntity
8
0
100
AcDbCircle
10
154
20
-33.5
30
0
40
3.0000000000000027
0
LINE
5
101
100
AcDbEntity
8
0
100
AcDbLine
10
135.00000201165676
20
-53.000000789761543
30
0
11
154.00000184774402
21
-53.000000789761543
31
0
0
LINE
5
102
100
AcDbEntity
8
0
100
AcDbLine
10
175.73339262076576
20
-26.862084180610005
30
0
11
176.09547739369691
21
-28.829034769011095
31
0
0
LINE
5
103
100
AcDbEntity
8
0
100
AcDbLine
10
136.19427301831834
20
-10.760466923090938
30
0
11
129.13474961205389
21
-49.109964180201722
31
0
0
LINE
5
104
100
AcDbEntity
8
0
100
AcDbLine
10
175.34017360731957
20
-13.38990976270177
30
0
11
173.37322301891857
21
-13.75199453563293
31
0
0
LINE
5
105
100
AcDbEntity
8
0
100
AcDbLine
10
172.75000165402889
20
-58.50000087171793
30
0
11
135.25000198185444
21
-58.50000087171793
31
0
0
LINE
5
106
100
AcDbEntity
8
0
100
AcDbLine
10
157
20
1.7519999701976774
30
0
11
157
21
10.583876264598654
31
0
0
LINE
5
107
100
AcDbEntity
8
0
100
AcDbLine
10
175.41199065800947
20
-55.934648880575331
30
0
11
173.48191333664806
21
-56.458864040186782
31
0
0
LINE
5
108
100
AcDbEntity
8
0
100
AcDbLine
10
181.71095600604599
20
-48.772152806027023
30
0
11
181.75000178813943
21
-49.000000730156934
31
0
0
LWPOLYLINE
5
109
100
AcDbEntity
8
0
100
AcDbPolyline
90
4
70
1
43
0.0
10
166.25000247359282
20
-4.000000059604643
10
164.25000244379046
20
-4.0000000596046448
10
164.25000244379046
20
-2.0000000298023224
10
166.25000247359282
20
-2.0000000298023259
0
LINE
5
110
100
AcDbEntity
8
0
100
AcDbLine
10
128.59043266845086
20
-52.066860833760288
30
0
11
126.25171621748095
21
-51.636340886769936
31
0
0
LINE
5
111
100
AcDbEntity
8
0
100
AcDbLine
10
135.47453795869905
20
-28.479207827440089
30
0
11
136.10719428060733
21
-25.042433299311174
31
0
0
LINE
5
112
100
AcDbEntity
8
0
100
AcDbLine
10
154
20
1.7519999701976774
30
0
11
150.99999999999997
21
1.7519999701976774
31
0
0
LINE
5
113
100
AcDbEntity
8
0
100
AcDbLine
10
175.93620581762093
20
-57.864726201936719
30
0
11
175.41199065800947
21
-55.934648880575331
31
0
0
LINE
5
114
100
AcDbEntity
8
0
100
AcDbLine
10
172.00000256299973
20
10.583876264598652
30
0
11
172.00000256299973
21
1.7519999701976774
31
0
0
LINE
5
115
100
AcDbEntity
8
0
100
AcDbLine
10
174.46608889801485
20
-8.6416156127909431
30
0
11
175.34017360731957
21
-13.38990976270177
31
0
0
LINE
5
116
100
AcDbEntity
8
0
100
AcDbLine
10
133.37517159861414
20
-9.5039449861910583
30
0
11
133.27715860718544
21
-10.03638162952341
31
0
0
ARC
5
117
100
AcDbEntity
8
0
100
AcDbCircle
10
135.97636652063781
20
-48.920878264241352
30
0
40
4.1943447918124308
100
AcDbArc
50
169.56951825130534
51
256.5391333594024
0
LINE
5
118
100
AcDbEntity
8
0
100
AcDbLine
10
129.13474961205389
20
-49.109964180201722
30
0
11
128.59043266845086
21
-52.066860833760288
31
0
0
LINE
5
119
100
AcDbEntity
8
0
100
AcDbLine
10
157
20
10.583876264598654
30
0
11
172.00000256299973
21
10.583876264598652
31
0
0
LWPOLYLINE
5
120
100
AcDbEntity
8
0
100
AcDbPolyline
90
4
70
1
43
0.0
10
143.75000213831663
20
-4.0000000298023224
10
141.75000210851431
20
-4.0000000298023224
10
141.75000210851431
20
-2.0000000298023224
10
143.75000213831663
20
-2.0000000298023224
0
LINE
5
121
100
AcDbEntity
8
0
100
AcDbLine
10
136.19427301831834
20
-10.760466923090938
30
0
11
133.24384688995795
21
-10.217341098729511
31
0
0
LINE
5
122
100
AcDbEntity
8
0
100
AcDbLine
10
135.47453795869905
20
-28.479207827440089
30
0
11
131.85133204253157
21
-48.161524073472151
31
0
0
LINE
5
123
100
AcDbEntity
8
0
100
AcDbLine
10
177.7003432091669
20
-26.499999407678843
30
0
11
175.73339262076576
21
-26.862084180610005
31
0
0
LINE
5
124
100
AcDbEntity
8
0
100
AcDbLine
10
181.71095600604599
20
-48.772152806027023
30
0
11
179.73969157034023
21
-49.109964180201722
31
0
0
LINE
5
125
100
AcDbEntity
8
0
100
AcDbLine
10
173.48191333664806
20
-56.458864040186782
30
0
11
174.00000137463212
21
-58.390605507334577
31
0
0
LINE
5
126
100
AcDbEntity
8
0
100
AcDbLine
10
172.00000256299973
20
1.7519999701976774
30
0
11
178.00000080466262
21
1.7519999701976774
31
0
0
LINE
5
127
100
AcDbEntity
8
0
100
AcDbLine
10
135.99999743700025
20
10.583876264598652
30
0
11
135.99999743700025
21
1.7519999701976774
31
0
0
LINE
5
128
100
AcDbEntity
8
0
100
AcDbLine
10
129.99999919533732
20
-2.0000000298023224
30
0
11
129.99999919533732
21
1.7519999701976774
31
0
0
ARC
5
129
100
AcDbEntity
8
0
100
AcDbCircle
10
180.41576229837969
20
-7.5463739962046965
30
0
40
6.0496419538442048
100
AcDbArc
50
113.53586606403375
51
190.43048174869463
0
ARC
5
130
100
AcDbEntity
8
0
100
AcDbCircle
10
127.58423770162032
20
-7.5463739962046983
30
0
40
6.0496419538442039
100
AcDbArc
50
-10.430481748694691
51
66.464133935966629
0
LINE
5
131
100
AcDbEntity
8
0
100
AcDbLine
10
134.51809029923524
20
-56.458864040186782
30
0
11
134.00000226125121
21
-58.390605507334577
31
0
0
LINE
5
132
100
AcDbEntity
8
0
100
AcDbLine
10
173.37322301891857
20
-13.75199453563293
30
0
11
173.73530779184966
21
-15.718945124034018
31
0
0
LINE
5
133
100
AcDbEntity
8
0
100
AcDbLine
10
132.58801297787386
20
-55.934648880575331
30
0
11
134.51809029923524
21
-56.458864040186782
31
0
0
ARC
5
134
100
AcDbEntity
8
0
100
AcDbCircle
10
135.25000198185444
20
-51.303778910523263
30
0
40
7.1962219611946745
100
AcDbArc
50
259.99685589843517
51
270
0
LINE
5
135
100
AcDbEntity
8
0
100
AcDbLine
10
150.99999999999997
20
10.583876264598652
30
0
11
135.99999743700025
21
10.583876264598652
31
0
0
LINE
5
136
100
AcDbEntity
8
0
100
AcDbLine
10
173.73530779184966
20
-15.718945124034018
30
0
11
175.70834225890277
21
-15.389909762701777
31
0
0
LINE
5
137
100
AcDbEntity
8
0
100
AcDbLine
10
172.52546573678893
20
-28.479207827440089
30
0
11
176.14867165295638
21
-48.161524073472144
31
0
0
LINE
5
138
100
AcDbEntity
8
0
100
AcDbLine
10
133.53391110198521
20
-8.6416156127909556
30
0
11
133.37517159861414
21
-9.5039449861910583
31
0
0
ARC
5
139
100
AcDbEntity
8
0
100
AcDbCircle
10
133.91294358761908
20
-50.313182993582011
30
0
40
7.7746480066469648
100
AcDbArc
50
189.79879555664493
51
256.24071759771465
0
LINE
5
140
100
AcDbEntity
8
0
100
AcDbLine
10
176.09547739369691
20
-28.829034769011095
30
0
11
178.06242798209806
21
-28.466949996079936
31
0
0
LINE
5
141
100
AcDbEntity
8
0
100
AcDbLine
10
178.00000080466265
20
-2.0000000298023224
30
0
11
178.00000080466262
21
-1.0000000149011612
31
0
0
LINE
5
142
100
AcDbEntity
8
0
100
AcDbLine
10
178.00000080466262
20
-1.0000000149011612
30
0
11
178.00000080466262
21
1.7519999701976774
31
0
0
CIRCLE
5
143
100
AcDbEntity
8
0
100
AcDbCircle
10
154
20
-33.500000491738319
30
0
40
0.99999999999999645
0
LINE
5
144
100
AcDbEntity
8
0
100
AcDbLine
10
178.06242798209806
20
-28.466949996079936
30
0
11
181.3731446318713
21
-46.800888370321296
31
0
0
LINE
5
145
100
AcDbEntity
8
0
100
AcDbLine
10
154
20
-33.5
30
0
11
149
21
-33.5
31
0
0
LINE
5
146
100
AcDbEntity
8
0
100
AcDbLine
10
131.15000123158094
20
-39.42263099042713
30
0
11
131.23577910853766
21
-39.42263099042713
31
0
0
ARC
5
147
100
AcDbEntity
8
0
100
AcDbCircle
10
165.77862901867977
20
-26.167957395032516
30
0
40
6.2169092978416778
100
AcDbArc
50
10.430481748694866
51
97.19485190242915
0
ARC
5
148
100
AcDbEntity
8
0
100
AcDbCircle
10
142.22137098132023
20
-26.167957395032516
30
0
40
6.2169092978416707
100
AcDbArc
50
82.805148097570324
51
169.56951825130508
0
LINE
5
149
100
AcDbEntity
8
0
100
AcDbLine
10
150.99999999999997
20
1.7519999701976774
30
0
11
150.99999999999997
21
10.583876264598652
31
0
0
LINE
5
150
100
AcDbEntity
8
0
100
AcDbLine
10
154
20
-33.5
30
0
11
159
21
-33.5
31
0
0
LINE
5
151
100
AcDbEntity
8
0
100
AcDbLine
10
179.40188019616559
20
-47.138699744496002
30
0
11
181.3731446318713
21
-46.800888370321296
31
0
0
LINE
5
152
100
AcDbEntity
8
0
100
AcDbLine
10
129.99999919533732
20
1.7519999701976774
30
0
11
135.99999743700025
21
1.7519999701976774
31
0
0
LINE
5
153
100
AcDbEntity
8
0
100
AcDbLine
10
143.00000213086602
20
-20.000000298023231
30
0
11
164.99999786913403
21
-20.00000029802322
31
0
0
LINE
5
154
100
AcDbEntity
8
0
100
AcDbLine
10
179.73969157034023
20
-49.109964180201722
30
0
11
179.40188019616559
21
-47.138699744496002
31
0
0
ARC
5
155
100
AcDbEntity
8
0
100
AcDbCircle
10
174.08705823032261
20
-50.313182993581975
30
0
40
7.7746480066469825
100
AcDbArc
50
-76.240717597714209
51
9.724199494600235
0
LINE
5
156
100
AcDbEntity
8
0
100
AcDbLine
10
154
20
-33.5
30
0
11
154
21
-38.5
31
0
0
LINE
5
157
100
AcDbEntity
8
0
100
AcDbLine
10
173.00000168383119
20
-53.000000789761543
30
0
11
154.00000184774402
21
-53.000000789761543
31
0
0
LINE
5
158
100
AcDbEntity
8
0
100
AcDbLine
10
175.70834225890277
20
-15.389909762701777
30
0
11
177.7003432091669
21
-26.499999407678843
31
0
0
ARC
5
159
100
AcDbEntity
8
0
100
AcDbCircle
10
172.02363717485017
20
-48.920878264241352
30
0
40
4.1943447918124317
100
AcDbArc
50
-76.539133359402811
51
10.430481748694833
0
LINE
5
160
100
AcDbEntity
8
0
100
AcDbLine
10
154
20
1.7519999701976774
30
0
11
157
21
1.7519999701976774
31
0
0
LINE
5
161
100
AcDbEntity
8
0
100
AcDbLine
10
132.06379781826246
20
-57.864726201936719
30
0
11
132.58801297787386
21
-55.934648880575331
31
0
0
LINE
5
162
100
AcDbEntity
8
0
100
AcDbLine
10
133.24384688995795
20
-10.217341098729511
30
0
11
133.27715860718544
21
-10.03638162952341
31
0
0
LINE
5
163
100
AcDbEntity
8
0
100
AcDbLine
10
181.71095600604599
20
-48.772152806027023
30
0
11
181.3731446318713
21
-46.800888370321296
31
0
0
ARC
5
164
100
AcDbEntity
8
0
100
AcDbCircle
10
172.75000165402889
20
-51.303778910523263
30
0
40
7.1962219611946754
100
AcDbArc
50
270
51
280.00314410156483
0
LINE
5
165
100
AcDbEntity
8
0
100
AcDbLine
10
172.52546204130095
20
-28.479207827440089
30
0
11
171.8928057193927
21
-25.042433299311178
31
0
0
LINE
5
166
100
AcDbEntity
8
0
100
AcDbLine
10
154
20
-33.500000491738319
30
0
11
154
21
-28.500000491738327
31
0
0
ENDSEC
0
SECTION
2
OBJECTS
0
DICTIONARY
5
C
100
AcDbDictionary
3
ACAD_GROUP
350
D
3
ACAD_MLINESTYLE
350
17
0
DICTIONARY
5
D
100
AcDbDictionary
0
DICTIONARY
5
1A
330
C
100
AcDbDictionary
0
DICTIONARY
5
17
100
AcDbDictionary
0
ENDSEC
0
EOF
