0
SECTION
2
HEADER
9
$INSUNITS
70
4
9
$ACADVER
1
AC1014
9
$HANDSEED
5
FFFF
0
ENDSEC
0
SECTION
2
TABLES
0
TABLE
2
VPORT
5
8
100
AcDbSymbolTable
0
ENDTAB
0
TABLE
2
LTYPE
5
5
100
AcDbSymbolTable
0
LTYPE
5
14
100
AcDbSymbolTableRecord
100
AcDbLinetypeTableRecord
2
BYBLOCK
70
0
0
LTYPE
5
15
100
AcDbSymbolTableRecord
100
AcDbLinetypeTableRecord
2
BYLAYER
70
0
0
ENDTAB
0
TABLE
2
LAYER
5
2
100
AcDbSymbolTable
70
2
0
LAYER
5
50
100
AcDbSymbolTableRecord
100
AcDbLayerTableRecord
2
0
70
0
6
CONTINUOUS
0
ENDTAB
0
TABLE
2
STYLE
5
3
100
AcDbSymbolTable
70
1
0
STYLE
5
11
100
AcDbSymbolTableRecord
100
AcDbTextStyleTableRecord
2
STANDARD
70
0
0
ENDTAB
0
TABLE
2
VIEW
5
6
100
AcDbSymbolTable
70
0
0
ENDTAB
0
TABLE
2
UCS
5
7
100
AcDbSymbolTable
70
0
0
ENDTAB
0
TABLE
2
APPID
5
9
100
AcDbSymbolTable
70
2
0
APPID
5
12
100
AcDbSymbolTableRecord
100
AcDbRegAppTableRecord
2
ACAD
70
0
0
ENDTAB
0
TABLE
2
DIMSTYLE
5
A
100
AcDbSymbolTable
70
1
0
ENDTAB
0
TABLE
2
BLOCK_RECORD
5
1
100
AcDbSymbolTable
70
1
0
BLOCK_RECORD
5
1F
100
AcDbSymbolTableRecord
100
AcDbBlockTableRecord
2
*MODEL_SPACE
0
BLOCK_RECORD
5
1B
100
AcDbSymbolTableRecord
100
AcDbBlockTableRecord
2
*PAPER_SPACE
0
ENDTAB
0
ENDSEC
0
SECTION
2
BLOCKS
0
BLOCK
5
20
100
AcDbEntity
100
AcDbBlockBegin
2
*MODEL_SPACE
0
ENDBLK
5
21
100
AcDbEntity
100
AcDbBlockEnd
0
BLOCK
5
1C
100
AcDbEntity
100
AcDbBlockBegin
2
*PAPER_SPACE
0
ENDBLK
5
1D
100
AcDbEntity
100
AcDbBlockEnd
0
ENDSEC
0
SECTION
2
ENTITIES
0
LINE
5
100
100
AcDbEntity
8
0
100
AcDbLine
10
21.786585032281273
20
3.3879158193899794
30
0
11
22.148669805212435
21
1.4209652309888954
31
0
0
LINE
5
101
100
AcDbEntity
8
0
100
AcDbLine
10
21.936203999679222
20
-27.614726201936723
30
0
11
21.411988840067821
21
-25.684648880575359
31
0
0
ARC
5
102
100
AcDbEntity
8
0
100
AcDbCircle
10
11.778100436767215
20
19.297967921175655
30
0
40
8.9644613667064537
100
AcDbArc
50
9.2960874096617285
51
86.982485492727207
0
CIRCLE
5
103
100
AcDbEntity
8
0
100
AcDbCircle
10
4.4408920985006262e-15
20
-3.2500000000000062
30
0
40
1.0000000000000009
0
CIRCLE
5
104
100
AcDbEntity
8
0
100
AcDbCircle
10
4.4408920985006262e-15
20
-3.2500000000000062
30
0
40
2.9999999999999982
0
LINE
5
105
100
AcDbEntity
8
0
100
AcDbLine
10
10.24999967962505
20
26.249999970197671
30
0
11
10.24999967962505
21
28.249999970197671
31
0
0
LINE
5
106
100
AcDbEntity
8
0
100
AcDbLine
10
12.249999709427373
20
26.249999970197671
30
0
11
10.24999967962505
21
26.249999970197671
31
0
0
LWPOLYLINE
5
107
100
AcDbEntity
8
0
100
AcDbPolyline
90
12
70
1
43
0.0
10
4.4408920985006262e-15
20
23.249999895691865
10
9.9999997019767903
20
23.249999895691865
42
-0.35581259968298556
10
15.420631715628094
20
18.637150348715156
10
18.525463889044953
20
1.7707921725598874
10
22.148669805212439
20
-17.911524073472144
42
-0.39880587255371475
10
18.999999836087238
20
-22.750000789761543
10
4.4408920985006262e-15
20
-22.750000789761543
10
-18.999999836087223
20
-22.75000078976154
42
-0.39880587255371519
10
-22.148669805212428
20
-17.911524073472144
10
-18.525463889044936
20
1.7707921725598874
10
-15.420631715628083
20
18.637150348715156
42
-0.35581259968298634
10
-9.9999997019767672
20
23.249999895691865
0
LINE
5
108
100
AcDbEntity
8
0
100
AcDbLine
10
4.4408920985006262e-15
20
-3.2500000000000062
30
0
11
4.4408920985006262e-15
21
-8.2500000000000071
31
0
0
LINE
5
109
100
AcDbEntity
8
0
100
AcDbLine
10
0.50000045448542529
20
-3.2500000000000062
30
0
11
5.5000005289912313
21
-3.2500000000000062
31
0
0
ARC
5
110
100
AcDbEntity
8
0
100
AcDbCircle
10
-20.087056412380893
20
-20.063182993582011
30
0
40
7.7746480066469834
100
AcDbArc
50
170.2758005053995
51
256.24071759771414
0
ARC
5
111
100
AcDbEntity
8
0
100
AcDbCircle
10
-18.749999836087206
20
-21.053778910523263
30
0
40
7.1962219611946932
100
AcDbArc
50
259.99685589843517
51
270
0
LINE
5
112
100
AcDbEntity
8
0
100
AcDbLine
10
4.4408920985006262e-15
20
-3.2500000000000062
30
0
11
-4.9999999999999911
21
-3.2500000000000062
31
0
0
LINE
5
113
100
AcDbEntity
8
0
100
AcDbLine
10
4.4408920985006262e-15
20
-3.2500000000000062
30
0
11
0.50000045448542529
21
-3.2500000000000062
31
0
0
LINE
5
114
100
AcDbEntity
8
0
100
AcDbLine
10
12.249999709427373
20
28.249999970197671
30
0
11
12.249999709427373
21
26.249999970197671
31
0
0
ARC
5
115
100
AcDbEntity
8
0
100
AcDbCircle
10
20.087056412380903
20
-20.063182993582011
30
0
40
7.7746480066469612
100
AcDbArc
50
-76.240717597714166
51
9.7241994946004997
0
LINE
5
116
100
AcDbEntity
8
0
100
AcDbLine
10
4.4408920985006262e-15
20
1.7499995753168962
30
0
11
4.4408920985006262e-15
21
-3.2500000000000062
31
0
0
LINE
5
117
100
AcDbEntity
8
0
100
AcDbLine
10
24.115620393613526
20
1.7830500039200681
30
0
11
25.764220861660057
21
-7.1726309904271135
31
0
0
LINE
5
118
100
AcDbEntity
8
0
100
AcDbLine
10
19.735309609791329
20
14.531054875965976
30
0
11
21.708344076844419
21
14.860090237298218
31
0
0
LINE
5
119
100
AcDbEntity
8
0
100
AcDbLine
10
21.340175425261265
20
16.860090237298223
30
0
11
19.373224836860178
21
16.498005464367061
31
0
0
LINE
5
120
100
AcDbEntity
8
0
100
AcDbLine
10
21.411988840067821
20
-25.684648880575359
30
0
11
19.481911518706426
21
-26.208864040186782
31
0
0
LINE
5
121
100
AcDbEntity
8
0
100
AcDbLine
10
19.373224836860178
20
16.498005464367061
30
0
11
19.735309609791329
21
14.531054875965976
31
0
0
LWPOLYLINE
5
122
100
AcDbEntity
8
0
100
AcDbPolyline
90
4
70
1
43
0.0
10
-29.999999999999993
20
-29.75
10
30.000000000000007
20
-29.750000000000007
10
30.000000000000007
20
30.249999999999993
10
-29.999999999999993
20
30.25
0
LINE
5
123
100
AcDbEntity
8
0
100
AcDbLine
10
20.624829288004911
20
20.746055013808942
30
0
11
21.340175425261265
21
16.860090237298223
31
0
0
LINE
5
124
100
AcDbEntity
8
0
100
AcDbLine
10
27.710954128499701
20
-18.522152806027016
30
0
11
27.749999970197663
21
-18.750000730156941
31
0
0
ARC
5
125
100
AcDbEntity
8
0
100
AcDbCircle
10
-11.778099550148102
20
19.297967921175655
30
0
40
8.964461366706459
100
AcDbArc
50
93.017514507272779
51
170.70391259033826
0
LINE
5
126
100
AcDbEntity
8
0
100
AcDbLine
10
21.708344076844419
20
14.860090237298218
30
0
11
23.75353562068236
21
3.7500005923211477
31
0
0
LINE
5
127
100
AcDbEntity
8
0
100
AcDbLine
10
19.481911518706426
20
-26.208864040186782
30
0
11
19.999999556690458
21
-28.140605507334598
31
0
0
LINE
5
128
100
AcDbEntity
8
0
100
AcDbLine
10
27.710954128499701
20
-18.522152806027016
30
0
11
25.739689692793981
21
-18.859964180201722
31
0
0
LINE
5
129
100
AcDbEntity
8
0
100
AcDbLine
10
25.401878318619275
20
-16.888699744495991
30
0
11
27.373142754324988
21
-16.550888370321285
31
0
0
LINE
5
130
100
AcDbEntity
8
0
100
AcDbLine
10
27.373142754324988
20
-16.550888370321285
30
0
11
25.764220861660057
21
-7.1726309904271135
31
0
0
LINE
5
131
100
AcDbEntity
8
0
100
AcDbLine
10
-10.250000625848754
20
28.249999970197671
30
0
11
-10.250000625848754
21
26.249999940395348
31
0
0
LINE
5
132
100
AcDbEntity
8
0
100
AcDbLine
10
-23.753535620682342
20
3.7500005923211477
30
0
11
-21.786585032281245
21
3.3879158193899794
31
0
0
LINE
5
133
100
AcDbEntity
8
0
100
AcDbLine
10
-21.708340440961102
20
14.860090237298218
30
0
11
-23.753535620682342
21
3.7500005923211477
31
0
0
LINE
5
134
100
AcDbEntity
8
0
100
AcDbLine
10
-22.849998768419006
20
-9.1726309904271517
30
0
11
-22.764220891462365
21
-9.1726309904271517
31
0
0
LINE
5
135
100
AcDbEntity
8
0
100
AcDbLine
10
10.24999967962505
20
28.249999970197671
30
0
11
-10.250000625848754
21
28.249999970197671
31
0
0
LINE
5
136
100
AcDbEntity
8
0
100
AcDbLine
10
-19.373221200976857
20
16.498005464367065
30
0
11
-19.735305973908012
21
14.531054875965976
31
0
0
LINE
5
137
100
AcDbEntity
8
0
100
AcDbLine
10
-27.710954188104324
20
-18.522152806027016
30
0
11
-25.739689752398604
21
-18.859964180201722
31
0
0
LINE
5
138
100
AcDbEntity
8
0
100
AcDbLine
10
-19.481911518706411
20
-26.208864040186771
30
0
11
-19.99999955669044
21
-28.140605507334605
31
0
0
LINE
5
139
100
AcDbEntity
8
0
100
AcDbLine
10
-19.735305973908012
20
14.531054875965976
30
0
11
-21.708340440961102
21
14.860090237298218
31
0
0
LINE
5
140
100
AcDbEntity
8
0
100
AcDbLine
10
-21.340171789377926
20
16.860090237298223
30
0
11
-19.373221200976857
21
16.498005464367065
31
0
0
LINE
5
141
100
AcDbEntity
8
0
100
AcDbLine
10
-20.624828401385802
20
20.746055013808942
30
0
11
-21.340171789377926
21
16.860090237298223
31
0
0
LINE
5
142
100
AcDbEntity
8
0
100
AcDbLine
10
-27.373142813929611
20
-16.550888370321285
30
0
11
-25.76422092126468
21
-7.1726309904271091
31
0
0
LINE
5
143
100
AcDbEntity
8
0
100
AcDbLine
10
-21.786585032281245
20
3.3879158193899794
30
0
11
-22.148669805212428
21
1.4209652309888954
31
0
0
LINE
5
144
100
AcDbEntity
8
0
100
AcDbLine
10
-24.115620393613515
20
1.7830500039200681
30
0
11
-25.764220891462362
21
-7.1726309904271135
31
0
0
LINE
5
145
100
AcDbEntity
8
0
100
AcDbLine
10
-25.401878378223898
20
-16.888699744495991
30
0
11
-27.373142813929611
21
-16.550888370321285
31
0
0
LINE
5
146
100
AcDbEntity
8
0
100
AcDbLine
10
-25.739689752398604
20
-18.859964180201722
30
0
11
-25.401878378223898
21
-16.888699744495991
31
0
0
LINE
5
147
100
AcDbEntity
8
0
100
AcDbLine
10
-21.936203999679222
20
-27.614726201936755
30
0
11
-21.411988840067799
21
-25.684648880575359
31
0
0
LINE
5
148
100
AcDbEntity
8
0
100
AcDbLine
10
-22.148669805212428
20
1.4209652309888954
30
0
11
-24.115620393613515
21
1.7830500039200681
31
0
0
LINE
5
149
100
AcDbEntity
8
0
100
AcDbLine
10
-21.411988840067799
20
-25.684648880575359
30
0
11
-19.481911518706411
21
-26.208864040186771
31
0
0
ARC
5
150
100
AcDbEntity
8
0
100
AcDbCircle
10
18.749999836087234
20
-21.053778910523263
30
0
40
7.1962219611946843
100
AcDbArc
50
270
51
280.00314410156471
0
LINE
5
151
100
AcDbEntity
8
0
100
AcDbLine
10
-18.749999836087209
20
-28.250000871717958
30
0
11
18.74999983608723
21
-28.250000871717948
31
0
0
LINE
5
152
100
AcDbEntity
8
0
100
AcDbLine
10
-27.710954188104324
20
-18.522152806027016
30
0
11
-27.749999970197674
21
-18.750000730156938
31
0
0
LINE
5
153
100
AcDbEntity
8
0
100
AcDbLine
10
-12.250000655651068
20
26.249999940395348
30
0
11
-12.250000655651068
21
28.249999970197671
31
0
0
LINE
5
154
100
AcDbEntity
8
0
100
AcDbLine
10
-29.999999999999993
20
-29.75
30
0
11
-29.999999999999993
21
-3.2500000000000018
31
0
0
LINE
5
155
100
AcDbEntity
8
0
100
AcDbLine
10
22.148669805212435
20
1.4209652309888954
30
0
11
24.115620393613526
21
1.7830500039200681
31
0
0
LINE
5
156
100
AcDbEntity
8
0
100
AcDbLine
10
23.75353562068236
20
3.7500005923211477
30
0
11
21.786585032281273
21
3.3879158193899794
31
0
0
LINE
5
157
100
AcDbEntity
8
0
100
AcDbLine
10
-10.250000625848754
20
26.249999940395348
30
0
11
-12.250000655651068
21
26.249999940395348
31
0
0
LINE
5
158
100
AcDbEntity
8
0
100
AcDbLine
10
25.739689692793981
20
-18.859964180201722
30
0
11
25.401878318619275
21
-16.888699744495991
31
0
0
ENDSEC
0
SECTION
2
OBJECTS
0
DICTIONARY
5
C
100
AcDbDictionary
3
ACAD_GROUP
350
D
3
ACAD_MLINESTYLE
350
17
0
DICTIONARY
5
D
100
AcDbDictionary
0
DICTIONARY
5
1A
330
C
100
AcDbDictionary
0
DICTIONARY
5
17
100
AcDbDictionary
0
ENDSEC
0
EOF
